<?xml version="1.0" encoding="utf-8" standalone="no"?>
<!DOCTYPE svg PUBLIC "-//W3C//DTD SVG 1.1//EN"
  "http://www.w3.org/Graphics/SVG/1.1/DTD/svg11.dtd">
<svg xmlns:xlink="http://www.w3.org/1999/xlink" width="851.351875pt" height="346.367188pt" viewBox="0 0 851.351875 346.367188" xmlns="http://www.w3.org/2000/svg" version="1.1">
 <metadata>
  <rdf:RDF xmlns:dc="http://purl.org/dc/elements/1.1/" xmlns:cc="http://creativecommons.org/ns#" xmlns:rdf="http://www.w3.org/1999/02/22-rdf-syntax-ns#">
   <cc:Work>
    <dc:type rdf:resource="http://purl.org/dc/dcmitype/StillImage"/>
    <dc:date>2026-03-30T16:38:35.120217</dc:date>
    <dc:format>image/svg+xml</dc:format>
    <dc:creator>
     <cc:Agent>
      <dc:title>Matplotlib v3.5.3, https://matplotlib.org/</dc:title>
     </cc:Agent>
    </dc:creator>
   </cc:Work>
  </rdf:RDF>
 </metadata>
 <defs>
  <style type="text/css">*{stroke-linejoin: round; stroke-linecap: butt}</style>
 </defs>
 <g id="figure_1">
  <g id="patch_1">
   <path d="M -0 346.367188 
L 851.351875 346.367188 
L 851.351875 0 
L -0 0 
z
" style="fill: #ffffff"/>
  </g>
  <g id="axes_1">
   <g id="patch_2">
    <path d="M 62.951875 301.037812 
L 844.151875 301.037812 
L 844.151875 23.837812 
L 62.951875 23.837812 
z
" style="fill: #ffffff"/>
   </g>
   <g id="matplotlib.axis_1">
    <g id="xtick_1">
     <g id="line2d_1">
      <defs>
       <path id="mc99ba9ebae" d="M 0 0 
L 0 3.5 
" style="stroke: #000000; stroke-width: 0.8"/>
      </defs>
      <g>
       <use xlink:href="#mc99ba9ebae" x="169.479148" y="301.037812" style="stroke: #000000; stroke-width: 0.8"/>
      </g>
     </g>
     <g id="text_1">
      <!-- 20 -->
      <g transform="translate(160.571648 318.675625)scale(0.14 -0.14)">
       <defs>
        <path id="DejaVuSans-32" d="M 1228 531 
L 3431 531 
L 3431 0 
L 469 0 
L 469 531 
Q 828 903 1448 1529 
Q 2069 2156 2228 2338 
Q 2531 2678 2651 2914 
Q 2772 3150 2772 3378 
Q 2772 3750 2511 3984 
Q 2250 4219 1831 4219 
Q 1534 4219 1204 4116 
Q 875 4013 500 3803 
L 500 4441 
Q 881 4594 1212 4672 
Q 1544 4750 1819 4750 
Q 2544 4750 2975 4387 
Q 3406 4025 3406 3419 
Q 3406 3131 3298 2873 
Q 3191 2616 2906 2266 
Q 2828 2175 2409 1742 
Q 1991 1309 1228 531 
z
" transform="scale(0.015625)"/>
        <path id="DejaVuSans-30" d="M 2034 4250 
Q 1547 4250 1301 3770 
Q 1056 3291 1056 2328 
Q 1056 1369 1301 889 
Q 1547 409 2034 409 
Q 2525 409 2770 889 
Q 3016 1369 3016 2328 
Q 3016 3291 2770 3770 
Q 2525 4250 2034 4250 
z
M 2034 4750 
Q 2819 4750 3233 4129 
Q 3647 3509 3647 2328 
Q 3647 1150 3233 529 
Q 2819 -91 2034 -91 
Q 1250 -91 836 529 
Q 422 1150 422 2328 
Q 422 3509 836 4129 
Q 1250 4750 2034 4750 
z
" transform="scale(0.015625)"/>
       </defs>
       <use xlink:href="#DejaVuSans-32"/>
       <use xlink:href="#DejaVuSans-30" x="63.623047"/>
      </g>
     </g>
    </g>
    <g id="xtick_2">
     <g id="line2d_2">
      <g>
       <use xlink:href="#mc99ba9ebae" x="287.842784" y="301.037812" style="stroke: #000000; stroke-width: 0.8"/>
      </g>
     </g>
     <g id="text_2">
      <!-- 40 -->
      <g transform="translate(278.935284 318.675625)scale(0.14 -0.14)">
       <defs>
        <path id="DejaVuSans-34" d="M 2419 4116 
L 825 1625 
L 2419 1625 
L 2419 4116 
z
M 2253 4666 
L 3047 4666 
L 3047 1625 
L 3713 1625 
L 3713 1100 
L 3047 1100 
L 3047 0 
L 2419 0 
L 2419 1100 
L 313 1100 
L 313 1709 
L 2253 4666 
z
" transform="scale(0.015625)"/>
       </defs>
       <use xlink:href="#DejaVuSans-34"/>
       <use xlink:href="#DejaVuSans-30" x="63.623047"/>
      </g>
     </g>
    </g>
    <g id="xtick_3">
     <g id="line2d_3">
      <g>
       <use xlink:href="#mc99ba9ebae" x="406.20642" y="301.037812" style="stroke: #000000; stroke-width: 0.8"/>
      </g>
     </g>
     <g id="text_3">
      <!-- 60 -->
      <g transform="translate(397.29892 318.675625)scale(0.14 -0.14)">
       <defs>
        <path id="DejaVuSans-36" d="M 2113 2584 
Q 1688 2584 1439 2293 
Q 1191 2003 1191 1497 
Q 1191 994 1439 701 
Q 1688 409 2113 409 
Q 2538 409 2786 701 
Q 3034 994 3034 1497 
Q 3034 2003 2786 2293 
Q 2538 2584 2113 2584 
z
M 3366 4563 
L 3366 3988 
Q 3128 4100 2886 4159 
Q 2644 4219 2406 4219 
Q 1781 4219 1451 3797 
Q 1122 3375 1075 2522 
Q 1259 2794 1537 2939 
Q 1816 3084 2150 3084 
Q 2853 3084 3261 2657 
Q 3669 2231 3669 1497 
Q 3669 778 3244 343 
Q 2819 -91 2113 -91 
Q 1303 -91 875 529 
Q 447 1150 447 2328 
Q 447 3434 972 4092 
Q 1497 4750 2381 4750 
Q 2619 4750 2861 4703 
Q 3103 4656 3366 4563 
z
" transform="scale(0.015625)"/>
       </defs>
       <use xlink:href="#DejaVuSans-36"/>
       <use xlink:href="#DejaVuSans-30" x="63.623047"/>
      </g>
     </g>
    </g>
    <g id="xtick_4">
     <g id="line2d_4">
      <g>
       <use xlink:href="#mc99ba9ebae" x="524.570057" y="301.037812" style="stroke: #000000; stroke-width: 0.8"/>
      </g>
     </g>
     <g id="text_4">
      <!-- 80 -->
      <g transform="translate(515.662557 318.675625)scale(0.14 -0.14)">
       <defs>
        <path id="DejaVuSans-38" d="M 2034 2216 
Q 1584 2216 1326 1975 
Q 1069 1734 1069 1313 
Q 1069 891 1326 650 
Q 1584 409 2034 409 
Q 2484 409 2743 651 
Q 3003 894 3003 1313 
Q 3003 1734 2745 1975 
Q 2488 2216 2034 2216 
z
M 1403 2484 
Q 997 2584 770 2862 
Q 544 3141 544 3541 
Q 544 4100 942 4425 
Q 1341 4750 2034 4750 
Q 2731 4750 3128 4425 
Q 3525 4100 3525 3541 
Q 3525 3141 3298 2862 
Q 3072 2584 2669 2484 
Q 3125 2378 3379 2068 
Q 3634 1759 3634 1313 
Q 3634 634 3220 271 
Q 2806 -91 2034 -91 
Q 1263 -91 848 271 
Q 434 634 434 1313 
Q 434 1759 690 2068 
Q 947 2378 1403 2484 
z
M 1172 3481 
Q 1172 3119 1398 2916 
Q 1625 2713 2034 2713 
Q 2441 2713 2670 2916 
Q 2900 3119 2900 3481 
Q 2900 3844 2670 4047 
Q 2441 4250 2034 4250 
Q 1625 4250 1398 4047 
Q 1172 3844 1172 3481 
z
" transform="scale(0.015625)"/>
       </defs>
       <use xlink:href="#DejaVuSans-38"/>
       <use xlink:href="#DejaVuSans-30" x="63.623047"/>
      </g>
     </g>
    </g>
    <g id="xtick_5">
     <g id="line2d_5">
      <g>
       <use xlink:href="#mc99ba9ebae" x="642.933693" y="301.037812" style="stroke: #000000; stroke-width: 0.8"/>
      </g>
     </g>
     <g id="text_5">
      <!-- 100 -->
      <g transform="translate(629.572443 318.675625)scale(0.14 -0.14)">
       <defs>
        <path id="DejaVuSans-31" d="M 794 531 
L 1825 531 
L 1825 4091 
L 703 3866 
L 703 4441 
L 1819 4666 
L 2450 4666 
L 2450 531 
L 3481 531 
L 3481 0 
L 794 0 
L 794 531 
z
" transform="scale(0.015625)"/>
       </defs>
       <use xlink:href="#DejaVuSans-31"/>
       <use xlink:href="#DejaVuSans-30" x="63.623047"/>
       <use xlink:href="#DejaVuSans-30" x="127.246094"/>
      </g>
     </g>
    </g>
    <g id="xtick_6">
     <g id="line2d_6">
      <g>
       <use xlink:href="#mc99ba9ebae" x="761.29733" y="301.037812" style="stroke: #000000; stroke-width: 0.8"/>
      </g>
     </g>
     <g id="text_6">
      <!-- 120 -->
      <g transform="translate(747.93608 318.675625)scale(0.14 -0.14)">
       <use xlink:href="#DejaVuSans-31"/>
       <use xlink:href="#DejaVuSans-32" x="63.623047"/>
       <use xlink:href="#DejaVuSans-30" x="127.246094"/>
      </g>
     </g>
    </g>
    <g id="text_7">
     <!-- Chain Length $[N]$ -->
     <g transform="translate(394.121875 336.227188)scale(0.14 -0.14)">
      <defs>
       <path id="DejaVuSans-43" d="M 4122 4306 
L 4122 3641 
Q 3803 3938 3442 4084 
Q 3081 4231 2675 4231 
Q 1875 4231 1450 3742 
Q 1025 3253 1025 2328 
Q 1025 1406 1450 917 
Q 1875 428 2675 428 
Q 3081 428 3442 575 
Q 3803 722 4122 1019 
L 4122 359 
Q 3791 134 3420 21 
Q 3050 -91 2638 -91 
Q 1578 -91 968 557 
Q 359 1206 359 2328 
Q 359 3453 968 4101 
Q 1578 4750 2638 4750 
Q 3056 4750 3426 4639 
Q 3797 4528 4122 4306 
z
" transform="scale(0.015625)"/>
       <path id="DejaVuSans-68" d="M 3513 2113 
L 3513 0 
L 2938 0 
L 2938 2094 
Q 2938 2591 2744 2837 
Q 2550 3084 2163 3084 
Q 1697 3084 1428 2787 
Q 1159 2491 1159 1978 
L 1159 0 
L 581 0 
L 581 4863 
L 1159 4863 
L 1159 2956 
Q 1366 3272 1645 3428 
Q 1925 3584 2291 3584 
Q 2894 3584 3203 3211 
Q 3513 2838 3513 2113 
z
" transform="scale(0.015625)"/>
       <path id="DejaVuSans-61" d="M 2194 1759 
Q 1497 1759 1228 1600 
Q 959 1441 959 1056 
Q 959 750 1161 570 
Q 1363 391 1709 391 
Q 2188 391 2477 730 
Q 2766 1069 2766 1631 
L 2766 1759 
L 2194 1759 
z
M 3341 1997 
L 3341 0 
L 2766 0 
L 2766 531 
Q 2569 213 2275 61 
Q 1981 -91 1556 -91 
Q 1019 -91 701 211 
Q 384 513 384 1019 
Q 384 1609 779 1909 
Q 1175 2209 1959 2209 
L 2766 2209 
L 2766 2266 
Q 2766 2663 2505 2880 
Q 2244 3097 1772 3097 
Q 1472 3097 1187 3025 
Q 903 2953 641 2809 
L 641 3341 
Q 956 3463 1253 3523 
Q 1550 3584 1831 3584 
Q 2591 3584 2966 3190 
Q 3341 2797 3341 1997 
z
" transform="scale(0.015625)"/>
       <path id="DejaVuSans-69" d="M 603 3500 
L 1178 3500 
L 1178 0 
L 603 0 
L 603 3500 
z
M 603 4863 
L 1178 4863 
L 1178 4134 
L 603 4134 
L 603 4863 
z
" transform="scale(0.015625)"/>
       <path id="DejaVuSans-6e" d="M 3513 2113 
L 3513 0 
L 2938 0 
L 2938 2094 
Q 2938 2591 2744 2837 
Q 2550 3084 2163 3084 
Q 1697 3084 1428 2787 
Q 1159 2491 1159 1978 
L 1159 0 
L 581 0 
L 581 3500 
L 1159 3500 
L 1159 2956 
Q 1366 3272 1645 3428 
Q 1925 3584 2291 3584 
Q 2894 3584 3203 3211 
Q 3513 2838 3513 2113 
z
" transform="scale(0.015625)"/>
       <path id="DejaVuSans-20" transform="scale(0.015625)"/>
       <path id="DejaVuSans-4c" d="M 628 4666 
L 1259 4666 
L 1259 531 
L 3531 531 
L 3531 0 
L 628 0 
L 628 4666 
z
" transform="scale(0.015625)"/>
       <path id="DejaVuSans-65" d="M 3597 1894 
L 3597 1613 
L 953 1613 
Q 991 1019 1311 708 
Q 1631 397 2203 397 
Q 2534 397 2845 478 
Q 3156 559 3463 722 
L 3463 178 
Q 3153 47 2828 -22 
Q 2503 -91 2169 -91 
Q 1331 -91 842 396 
Q 353 884 353 1716 
Q 353 2575 817 3079 
Q 1281 3584 2069 3584 
Q 2775 3584 3186 3129 
Q 3597 2675 3597 1894 
z
M 3022 2063 
Q 3016 2534 2758 2815 
Q 2500 3097 2075 3097 
Q 1594 3097 1305 2825 
Q 1016 2553 972 2059 
L 3022 2063 
z
" transform="scale(0.015625)"/>
       <path id="DejaVuSans-67" d="M 2906 1791 
Q 2906 2416 2648 2759 
Q 2391 3103 1925 3103 
Q 1463 3103 1205 2759 
Q 947 2416 947 1791 
Q 947 1169 1205 825 
Q 1463 481 1925 481 
Q 2391 481 2648 825 
Q 2906 1169 2906 1791 
z
M 3481 434 
Q 3481 -459 3084 -895 
Q 2688 -1331 1869 -1331 
Q 1566 -1331 1297 -1286 
Q 1028 -1241 775 -1147 
L 775 -588 
Q 1028 -725 1275 -790 
Q 1522 -856 1778 -856 
Q 2344 -856 2625 -561 
Q 2906 -266 2906 331 
L 2906 616 
Q 2728 306 2450 153 
Q 2172 0 1784 0 
Q 1141 0 747 490 
Q 353 981 353 1791 
Q 353 2603 747 3093 
Q 1141 3584 1784 3584 
Q 2172 3584 2450 3431 
Q 2728 3278 2906 2969 
L 2906 3500 
L 3481 3500 
L 3481 434 
z
" transform="scale(0.015625)"/>
       <path id="DejaVuSans-74" d="M 1172 4494 
L 1172 3500 
L 2356 3500 
L 2356 3053 
L 1172 3053 
L 1172 1153 
Q 1172 725 1289 603 
Q 1406 481 1766 481 
L 2356 481 
L 2356 0 
L 1766 0 
Q 1100 0 847 248 
Q 594 497 594 1153 
L 594 3053 
L 172 3053 
L 172 3500 
L 594 3500 
L 594 4494 
L 1172 4494 
z
" transform="scale(0.015625)"/>
       <path id="DejaVuSans-5b" d="M 550 4863 
L 1875 4863 
L 1875 4416 
L 1125 4416 
L 1125 -397 
L 1875 -397 
L 1875 -844 
L 550 -844 
L 550 4863 
z
" transform="scale(0.015625)"/>
       <path id="DejaVuSans-Oblique-4e" d="M 1081 4666 
L 1931 4666 
L 3219 666 
L 4000 4666 
L 4616 4666 
L 3706 0 
L 2853 0 
L 1569 4025 
L 788 0 
L 172 0 
L 1081 4666 
z
" transform="scale(0.015625)"/>
       <path id="DejaVuSans-5d" d="M 1947 4863 
L 1947 -844 
L 622 -844 
L 622 -397 
L 1369 -397 
L 1369 4416 
L 622 4416 
L 622 4863 
L 1947 4863 
z
" transform="scale(0.015625)"/>
      </defs>
      <use xlink:href="#DejaVuSans-43" transform="translate(0 0.015625)"/>
      <use xlink:href="#DejaVuSans-68" transform="translate(69.824219 0.015625)"/>
      <use xlink:href="#DejaVuSans-61" transform="translate(133.203125 0.015625)"/>
      <use xlink:href="#DejaVuSans-69" transform="translate(194.482422 0.015625)"/>
      <use xlink:href="#DejaVuSans-6e" transform="translate(222.265625 0.015625)"/>
      <use xlink:href="#DejaVuSans-20" transform="translate(285.644531 0.015625)"/>
      <use xlink:href="#DejaVuSans-4c" transform="translate(317.431641 0.015625)"/>
      <use xlink:href="#DejaVuSans-65" transform="translate(373.144531 0.015625)"/>
      <use xlink:href="#DejaVuSans-6e" transform="translate(434.667969 0.015625)"/>
      <use xlink:href="#DejaVuSans-67" transform="translate(498.046875 0.015625)"/>
      <use xlink:href="#DejaVuSans-74" transform="translate(561.523438 0.015625)"/>
      <use xlink:href="#DejaVuSans-68" transform="translate(600.732422 0.015625)"/>
      <use xlink:href="#DejaVuSans-20" transform="translate(664.111328 0.015625)"/>
      <use xlink:href="#DejaVuSans-5b" transform="translate(695.898438 0.015625)"/>
      <use xlink:href="#DejaVuSans-Oblique-4e" transform="translate(734.912109 0.015625)"/>
      <use xlink:href="#DejaVuSans-5d" transform="translate(809.716797 0.015625)"/>
     </g>
    </g>
   </g>
   <g id="matplotlib.axis_2">
    <g id="ytick_1">
     <g id="line2d_7">
      <defs>
       <path id="m4f048adcf7" d="M 0 0 
L -3.5 0 
" style="stroke: #000000; stroke-width: 0.8"/>
      </defs>
      <g>
       <use xlink:href="#m4f048adcf7" x="62.951875" y="286.390025" style="stroke: #000000; stroke-width: 0.8"/>
      </g>
     </g>
     <g id="text_8">
      <!-- 0.92 -->
      <g transform="translate(24.78 291.708931)scale(0.14 -0.14)">
       <defs>
        <path id="DejaVuSans-2e" d="M 684 794 
L 1344 794 
L 1344 0 
L 684 0 
L 684 794 
z
" transform="scale(0.015625)"/>
        <path id="DejaVuSans-39" d="M 703 97 
L 703 672 
Q 941 559 1184 500 
Q 1428 441 1663 441 
Q 2288 441 2617 861 
Q 2947 1281 2994 2138 
Q 2813 1869 2534 1725 
Q 2256 1581 1919 1581 
Q 1219 1581 811 2004 
Q 403 2428 403 3163 
Q 403 3881 828 4315 
Q 1253 4750 1959 4750 
Q 2769 4750 3195 4129 
Q 3622 3509 3622 2328 
Q 3622 1225 3098 567 
Q 2575 -91 1691 -91 
Q 1453 -91 1209 -44 
Q 966 3 703 97 
z
M 1959 2075 
Q 2384 2075 2632 2365 
Q 2881 2656 2881 3163 
Q 2881 3666 2632 3958 
Q 2384 4250 1959 4250 
Q 1534 4250 1286 3958 
Q 1038 3666 1038 3163 
Q 1038 2656 1286 2365 
Q 1534 2075 1959 2075 
z
" transform="scale(0.015625)"/>
       </defs>
       <use xlink:href="#DejaVuSans-30"/>
       <use xlink:href="#DejaVuSans-2e" x="63.623047"/>
       <use xlink:href="#DejaVuSans-39" x="95.410156"/>
       <use xlink:href="#DejaVuSans-32" x="159.033203"/>
      </g>
     </g>
    </g>
    <g id="ytick_2">
     <g id="line2d_8">
      <g>
       <use xlink:href="#m4f048adcf7" x="62.951875" y="253.737849" style="stroke: #000000; stroke-width: 0.8"/>
      </g>
     </g>
     <g id="text_9">
      <!-- 0.93 -->
      <g transform="translate(24.78 259.056755)scale(0.14 -0.14)">
       <defs>
        <path id="DejaVuSans-33" d="M 2597 2516 
Q 3050 2419 3304 2112 
Q 3559 1806 3559 1356 
Q 3559 666 3084 287 
Q 2609 -91 1734 -91 
Q 1441 -91 1130 -33 
Q 819 25 488 141 
L 488 750 
Q 750 597 1062 519 
Q 1375 441 1716 441 
Q 2309 441 2620 675 
Q 2931 909 2931 1356 
Q 2931 1769 2642 2001 
Q 2353 2234 1838 2234 
L 1294 2234 
L 1294 2753 
L 1863 2753 
Q 2328 2753 2575 2939 
Q 2822 3125 2822 3475 
Q 2822 3834 2567 4026 
Q 2313 4219 1838 4219 
Q 1578 4219 1281 4162 
Q 984 4106 628 3988 
L 628 4550 
Q 988 4650 1302 4700 
Q 1616 4750 1894 4750 
Q 2613 4750 3031 4423 
Q 3450 4097 3450 3541 
Q 3450 3153 3228 2886 
Q 3006 2619 2597 2516 
z
" transform="scale(0.015625)"/>
       </defs>
       <use xlink:href="#DejaVuSans-30"/>
       <use xlink:href="#DejaVuSans-2e" x="63.623047"/>
       <use xlink:href="#DejaVuSans-39" x="95.410156"/>
       <use xlink:href="#DejaVuSans-33" x="159.033203"/>
      </g>
     </g>
    </g>
    <g id="ytick_3">
     <g id="line2d_9">
      <g>
       <use xlink:href="#m4f048adcf7" x="62.951875" y="221.085672" style="stroke: #000000; stroke-width: 0.8"/>
      </g>
     </g>
     <g id="text_10">
      <!-- 0.94 -->
      <g transform="translate(24.78 226.404579)scale(0.14 -0.14)">
       <use xlink:href="#DejaVuSans-30"/>
       <use xlink:href="#DejaVuSans-2e" x="63.623047"/>
       <use xlink:href="#DejaVuSans-39" x="95.410156"/>
       <use xlink:href="#DejaVuSans-34" x="159.033203"/>
      </g>
     </g>
    </g>
    <g id="ytick_4">
     <g id="line2d_10">
      <g>
       <use xlink:href="#m4f048adcf7" x="62.951875" y="188.433496" style="stroke: #000000; stroke-width: 0.8"/>
      </g>
     </g>
     <g id="text_11">
      <!-- 0.95 -->
      <g transform="translate(24.78 193.752402)scale(0.14 -0.14)">
       <defs>
        <path id="DejaVuSans-35" d="M 691 4666 
L 3169 4666 
L 3169 4134 
L 1269 4134 
L 1269 2991 
Q 1406 3038 1543 3061 
Q 1681 3084 1819 3084 
Q 2600 3084 3056 2656 
Q 3513 2228 3513 1497 
Q 3513 744 3044 326 
Q 2575 -91 1722 -91 
Q 1428 -91 1123 -41 
Q 819 9 494 109 
L 494 744 
Q 775 591 1075 516 
Q 1375 441 1709 441 
Q 2250 441 2565 725 
Q 2881 1009 2881 1497 
Q 2881 1984 2565 2268 
Q 2250 2553 1709 2553 
Q 1456 2553 1204 2497 
Q 953 2441 691 2322 
L 691 4666 
z
" transform="scale(0.015625)"/>
       </defs>
       <use xlink:href="#DejaVuSans-30"/>
       <use xlink:href="#DejaVuSans-2e" x="63.623047"/>
       <use xlink:href="#DejaVuSans-39" x="95.410156"/>
       <use xlink:href="#DejaVuSans-35" x="159.033203"/>
      </g>
     </g>
    </g>
    <g id="ytick_5">
     <g id="line2d_11">
      <g>
       <use xlink:href="#m4f048adcf7" x="62.951875" y="155.78132" style="stroke: #000000; stroke-width: 0.8"/>
      </g>
     </g>
     <g id="text_12">
      <!-- 0.96 -->
      <g transform="translate(24.78 161.100226)scale(0.14 -0.14)">
       <use xlink:href="#DejaVuSans-30"/>
       <use xlink:href="#DejaVuSans-2e" x="63.623047"/>
       <use xlink:href="#DejaVuSans-39" x="95.410156"/>
       <use xlink:href="#DejaVuSans-36" x="159.033203"/>
      </g>
     </g>
    </g>
    <g id="ytick_6">
     <g id="line2d_12">
      <g>
       <use xlink:href="#m4f048adcf7" x="62.951875" y="123.129143" style="stroke: #000000; stroke-width: 0.8"/>
      </g>
     </g>
     <g id="text_13">
      <!-- 0.97 -->
      <g transform="translate(24.78 128.44805)scale(0.14 -0.14)">
       <defs>
        <path id="DejaVuSans-37" d="M 525 4666 
L 3525 4666 
L 3525 4397 
L 1831 0 
L 1172 0 
L 2766 4134 
L 525 4134 
L 525 4666 
z
" transform="scale(0.015625)"/>
       </defs>
       <use xlink:href="#DejaVuSans-30"/>
       <use xlink:href="#DejaVuSans-2e" x="63.623047"/>
       <use xlink:href="#DejaVuSans-39" x="95.410156"/>
       <use xlink:href="#DejaVuSans-37" x="159.033203"/>
      </g>
     </g>
    </g>
    <g id="ytick_7">
     <g id="line2d_13">
      <g>
       <use xlink:href="#m4f048adcf7" x="62.951875" y="90.476967" style="stroke: #000000; stroke-width: 0.8"/>
      </g>
     </g>
     <g id="text_14">
      <!-- 0.98 -->
      <g transform="translate(24.78 95.795873)scale(0.14 -0.14)">
       <use xlink:href="#DejaVuSans-30"/>
       <use xlink:href="#DejaVuSans-2e" x="63.623047"/>
       <use xlink:href="#DejaVuSans-39" x="95.410156"/>
       <use xlink:href="#DejaVuSans-38" x="159.033203"/>
      </g>
     </g>
    </g>
    <g id="ytick_8">
     <g id="line2d_14">
      <g>
       <use xlink:href="#m4f048adcf7" x="62.951875" y="57.824791" style="stroke: #000000; stroke-width: 0.8"/>
      </g>
     </g>
     <g id="text_15">
      <!-- 0.99 -->
      <g transform="translate(24.78 63.143697)scale(0.14 -0.14)">
       <use xlink:href="#DejaVuSans-30"/>
       <use xlink:href="#DejaVuSans-2e" x="63.623047"/>
       <use xlink:href="#DejaVuSans-39" x="95.410156"/>
       <use xlink:href="#DejaVuSans-39" x="159.033203"/>
      </g>
     </g>
    </g>
    <g id="ytick_9">
     <g id="line2d_15">
      <g>
       <use xlink:href="#m4f048adcf7" x="62.951875" y="25.172615" style="stroke: #000000; stroke-width: 0.8"/>
      </g>
     </g>
     <g id="text_16">
      <!-- 1.00 -->
      <g transform="translate(24.78 30.491521)scale(0.14 -0.14)">
       <use xlink:href="#DejaVuSans-31"/>
       <use xlink:href="#DejaVuSans-2e" x="63.623047"/>
       <use xlink:href="#DejaVuSans-30" x="95.410156"/>
       <use xlink:href="#DejaVuSans-30" x="159.033203"/>
      </g>
     </g>
    </g>
    <g id="text_17">
     <!-- Transmission Probability $[P(T)]$ -->
     <g transform="translate(17.84 269.887812)rotate(-90)scale(0.14 -0.14)">
      <defs>
       <path id="DejaVuSans-54" d="M -19 4666 
L 3928 4666 
L 3928 4134 
L 2272 4134 
L 2272 0 
L 1638 0 
L 1638 4134 
L -19 4134 
L -19 4666 
z
" transform="scale(0.015625)"/>
       <path id="DejaVuSans-72" d="M 2631 2963 
Q 2534 3019 2420 3045 
Q 2306 3072 2169 3072 
Q 1681 3072 1420 2755 
Q 1159 2438 1159 1844 
L 1159 0 
L 581 0 
L 581 3500 
L 1159 3500 
L 1159 2956 
Q 1341 3275 1631 3429 
Q 1922 3584 2338 3584 
Q 2397 3584 2469 3576 
Q 2541 3569 2628 3553 
L 2631 2963 
z
" transform="scale(0.015625)"/>
       <path id="DejaVuSans-73" d="M 2834 3397 
L 2834 2853 
Q 2591 2978 2328 3040 
Q 2066 3103 1784 3103 
Q 1356 3103 1142 2972 
Q 928 2841 928 2578 
Q 928 2378 1081 2264 
Q 1234 2150 1697 2047 
L 1894 2003 
Q 2506 1872 2764 1633 
Q 3022 1394 3022 966 
Q 3022 478 2636 193 
Q 2250 -91 1575 -91 
Q 1294 -91 989 -36 
Q 684 19 347 128 
L 347 722 
Q 666 556 975 473 
Q 1284 391 1588 391 
Q 1994 391 2212 530 
Q 2431 669 2431 922 
Q 2431 1156 2273 1281 
Q 2116 1406 1581 1522 
L 1381 1569 
Q 847 1681 609 1914 
Q 372 2147 372 2553 
Q 372 3047 722 3315 
Q 1072 3584 1716 3584 
Q 2034 3584 2315 3537 
Q 2597 3491 2834 3397 
z
" transform="scale(0.015625)"/>
       <path id="DejaVuSans-6d" d="M 3328 2828 
Q 3544 3216 3844 3400 
Q 4144 3584 4550 3584 
Q 5097 3584 5394 3201 
Q 5691 2819 5691 2113 
L 5691 0 
L 5113 0 
L 5113 2094 
Q 5113 2597 4934 2840 
Q 4756 3084 4391 3084 
Q 3944 3084 3684 2787 
Q 3425 2491 3425 1978 
L 3425 0 
L 2847 0 
L 2847 2094 
Q 2847 2600 2669 2842 
Q 2491 3084 2119 3084 
Q 1678 3084 1418 2786 
Q 1159 2488 1159 1978 
L 1159 0 
L 581 0 
L 581 3500 
L 1159 3500 
L 1159 2956 
Q 1356 3278 1631 3431 
Q 1906 3584 2284 3584 
Q 2666 3584 2933 3390 
Q 3200 3197 3328 2828 
z
" transform="scale(0.015625)"/>
       <path id="DejaVuSans-6f" d="M 1959 3097 
Q 1497 3097 1228 2736 
Q 959 2375 959 1747 
Q 959 1119 1226 758 
Q 1494 397 1959 397 
Q 2419 397 2687 759 
Q 2956 1122 2956 1747 
Q 2956 2369 2687 2733 
Q 2419 3097 1959 3097 
z
M 1959 3584 
Q 2709 3584 3137 3096 
Q 3566 2609 3566 1747 
Q 3566 888 3137 398 
Q 2709 -91 1959 -91 
Q 1206 -91 779 398 
Q 353 888 353 1747 
Q 353 2609 779 3096 
Q 1206 3584 1959 3584 
z
" transform="scale(0.015625)"/>
       <path id="DejaVuSans-50" d="M 1259 4147 
L 1259 2394 
L 2053 2394 
Q 2494 2394 2734 2622 
Q 2975 2850 2975 3272 
Q 2975 3691 2734 3919 
Q 2494 4147 2053 4147 
L 1259 4147 
z
M 628 4666 
L 2053 4666 
Q 2838 4666 3239 4311 
Q 3641 3956 3641 3272 
Q 3641 2581 3239 2228 
Q 2838 1875 2053 1875 
L 1259 1875 
L 1259 0 
L 628 0 
L 628 4666 
z
" transform="scale(0.015625)"/>
       <path id="DejaVuSans-62" d="M 3116 1747 
Q 3116 2381 2855 2742 
Q 2594 3103 2138 3103 
Q 1681 3103 1420 2742 
Q 1159 2381 1159 1747 
Q 1159 1113 1420 752 
Q 1681 391 2138 391 
Q 2594 391 2855 752 
Q 3116 1113 3116 1747 
z
M 1159 2969 
Q 1341 3281 1617 3432 
Q 1894 3584 2278 3584 
Q 2916 3584 3314 3078 
Q 3713 2572 3713 1747 
Q 3713 922 3314 415 
Q 2916 -91 2278 -91 
Q 1894 -91 1617 61 
Q 1341 213 1159 525 
L 1159 0 
L 581 0 
L 581 4863 
L 1159 4863 
L 1159 2969 
z
" transform="scale(0.015625)"/>
       <path id="DejaVuSans-6c" d="M 603 4863 
L 1178 4863 
L 1178 0 
L 603 0 
L 603 4863 
z
" transform="scale(0.015625)"/>
       <path id="DejaVuSans-79" d="M 2059 -325 
Q 1816 -950 1584 -1140 
Q 1353 -1331 966 -1331 
L 506 -1331 
L 506 -850 
L 844 -850 
Q 1081 -850 1212 -737 
Q 1344 -625 1503 -206 
L 1606 56 
L 191 3500 
L 800 3500 
L 1894 763 
L 2988 3500 
L 3597 3500 
L 2059 -325 
z
" transform="scale(0.015625)"/>
       <path id="DejaVuSans-Oblique-50" d="M 1081 4666 
L 2541 4666 
Q 3178 4666 3512 4369 
Q 3847 4072 3847 3500 
Q 3847 2731 3353 2303 
Q 2859 1875 1966 1875 
L 1172 1875 
L 806 0 
L 172 0 
L 1081 4666 
z
M 1613 4147 
L 1275 2394 
L 2069 2394 
Q 2606 2394 2893 2669 
Q 3181 2944 3181 3456 
Q 3181 3784 2986 3965 
Q 2791 4147 2438 4147 
L 1613 4147 
z
" transform="scale(0.015625)"/>
       <path id="DejaVuSans-28" d="M 1984 4856 
Q 1566 4138 1362 3434 
Q 1159 2731 1159 2009 
Q 1159 1288 1364 580 
Q 1569 -128 1984 -844 
L 1484 -844 
Q 1016 -109 783 600 
Q 550 1309 550 2009 
Q 550 2706 781 3412 
Q 1013 4119 1484 4856 
L 1984 4856 
z
" transform="scale(0.015625)"/>
       <path id="DejaVuSans-Oblique-54" d="M 378 4666 
L 4325 4666 
L 4225 4134 
L 2559 4134 
L 1759 0 
L 1125 0 
L 1925 4134 
L 275 4134 
L 378 4666 
z
" transform="scale(0.015625)"/>
       <path id="DejaVuSans-29" d="M 513 4856 
L 1013 4856 
Q 1481 4119 1714 3412 
Q 1947 2706 1947 2009 
Q 1947 1309 1714 600 
Q 1481 -109 1013 -844 
L 513 -844 
Q 928 -128 1133 580 
Q 1338 1288 1338 2009 
Q 1338 2731 1133 3434 
Q 928 4138 513 4856 
z
" transform="scale(0.015625)"/>
      </defs>
      <use xlink:href="#DejaVuSans-54" transform="translate(0 0.015625)"/>
      <use xlink:href="#DejaVuSans-72" transform="translate(61.083984 0.015625)"/>
      <use xlink:href="#DejaVuSans-61" transform="translate(102.197266 0.015625)"/>
      <use xlink:href="#DejaVuSans-6e" transform="translate(163.476562 0.015625)"/>
      <use xlink:href="#DejaVuSans-73" transform="translate(226.855469 0.015625)"/>
      <use xlink:href="#DejaVuSans-6d" transform="translate(278.955078 0.015625)"/>
      <use xlink:href="#DejaVuSans-69" transform="translate(376.367188 0.015625)"/>
      <use xlink:href="#DejaVuSans-73" transform="translate(404.150391 0.015625)"/>
      <use xlink:href="#DejaVuSans-73" transform="translate(456.25 0.015625)"/>
      <use xlink:href="#DejaVuSans-69" transform="translate(508.349609 0.015625)"/>
      <use xlink:href="#DejaVuSans-6f" transform="translate(536.132812 0.015625)"/>
      <use xlink:href="#DejaVuSans-6e" transform="translate(597.314453 0.015625)"/>
      <use xlink:href="#DejaVuSans-20" transform="translate(660.693359 0.015625)"/>
      <use xlink:href="#DejaVuSans-50" transform="translate(692.480469 0.015625)"/>
      <use xlink:href="#DejaVuSans-72" transform="translate(752.783203 0.015625)"/>
      <use xlink:href="#DejaVuSans-6f" transform="translate(793.896484 0.015625)"/>
      <use xlink:href="#DejaVuSans-62" transform="translate(855.078125 0.015625)"/>
      <use xlink:href="#DejaVuSans-61" transform="translate(918.554688 0.015625)"/>
      <use xlink:href="#DejaVuSans-62" transform="translate(979.833984 0.015625)"/>
      <use xlink:href="#DejaVuSans-69" transform="translate(1043.310547 0.015625)"/>
      <use xlink:href="#DejaVuSans-6c" transform="translate(1071.09375 0.015625)"/>
      <use xlink:href="#DejaVuSans-69" transform="translate(1098.876953 0.015625)"/>
      <use xlink:href="#DejaVuSans-74" transform="translate(1126.660156 0.015625)"/>
      <use xlink:href="#DejaVuSans-79" transform="translate(1165.869141 0.015625)"/>
      <use xlink:href="#DejaVuSans-20" transform="translate(1225.048828 0.015625)"/>
      <use xlink:href="#DejaVuSans-5b" transform="translate(1256.835938 0.015625)"/>
      <use xlink:href="#DejaVuSans-Oblique-50" transform="translate(1295.849609 0.015625)"/>
      <use xlink:href="#DejaVuSans-28" transform="translate(1356.152344 0.015625)"/>
      <use xlink:href="#DejaVuSans-Oblique-54" transform="translate(1395.166016 0.015625)"/>
      <use xlink:href="#DejaVuSans-29" transform="translate(1456.25 0.015625)"/>
      <use xlink:href="#DejaVuSans-5d" transform="translate(1495.263672 0.015625)"/>
     </g>
    </g>
   </g>
   <g id="LineCollection_1">
    <path d="M 98.460966 56.875792 
L 98.460966 44.745496 
" clip-path="url(#pe3371541ab)" style="fill: none; stroke: #ff0000; stroke-width: 2"/>
    <path d="M 104.379148 56.34358 
L 104.379148 48.256245 
" clip-path="url(#pe3371541ab)" style="fill: none; stroke: #ff0000; stroke-width: 2"/>
    <path d="M 110.29733 56.90665 
L 110.29733 50.386176 
" clip-path="url(#pe3371541ab)" style="fill: none; stroke: #ff0000; stroke-width: 2"/>
    <path d="M 116.215511 57.121593 
L 116.215511 51.005069 
" clip-path="url(#pe3371541ab)" style="fill: none; stroke: #ff0000; stroke-width: 2"/>
    <path d="M 122.133693 56.440938 
L 122.133693 48.919935 
" clip-path="url(#pe3371541ab)" style="fill: none; stroke: #ff0000; stroke-width: 2"/>
    <path d="M 128.051875 56.669721 
L 128.051875 50.621239 
" clip-path="url(#pe3371541ab)" style="fill: none; stroke: #ff0000; stroke-width: 2"/>
    <path d="M 133.970057 56.388278 
L 133.970057 51.510592 
" clip-path="url(#pe3371541ab)" style="fill: none; stroke: #ff0000; stroke-width: 2"/>
    <path d="M 139.888239 57.00376 
L 139.888239 50.958272 
" clip-path="url(#pe3371541ab)" style="fill: none; stroke: #ff0000; stroke-width: 2"/>
    <path d="M 145.80642 57.524398 
L 145.80642 53.069836 
" clip-path="url(#pe3371541ab)" style="fill: none; stroke: #ff0000; stroke-width: 2"/>
    <path d="M 151.724602 57.2483 
L 151.724602 53.586551 
" clip-path="url(#pe3371541ab)" style="fill: none; stroke: #ff0000; stroke-width: 2"/>
    <path d="M 157.642784 57.749462 
L 157.642784 53.132702 
" clip-path="url(#pe3371541ab)" style="fill: none; stroke: #ff0000; stroke-width: 2"/>
    <path d="M 163.560966 57.328143 
L 163.560966 53.920707 
" clip-path="url(#pe3371541ab)" style="fill: none; stroke: #ff0000; stroke-width: 2"/>
    <path d="M 169.479148 57.763078 
L 169.479148 53.308531 
" clip-path="url(#pe3371541ab)" style="fill: none; stroke: #ff0000; stroke-width: 2"/>
    <path d="M 175.39733 57.31848 
L 175.39733 53.922957 
" clip-path="url(#pe3371541ab)" style="fill: none; stroke: #ff0000; stroke-width: 2"/>
    <path d="M 181.315511 57.275481 
L 181.315511 53.383007 
" clip-path="url(#pe3371541ab)" style="fill: none; stroke: #ff0000; stroke-width: 2"/>
    <path d="M 187.233693 57.193966 
L 187.233693 53.09166 
" clip-path="url(#pe3371541ab)" style="fill: none; stroke: #ff0000; stroke-width: 2"/>
    <path d="M 193.151875 58.505202 
L 193.151875 53.070449 
" clip-path="url(#pe3371541ab)" style="fill: none; stroke: #ff0000; stroke-width: 2"/>
    <path d="M 199.070057 57.759862 
L 199.070057 53.983496 
" clip-path="url(#pe3371541ab)" style="fill: none; stroke: #ff0000; stroke-width: 2"/>
    <path d="M 204.988239 57.460332 
L 204.988239 54.653372 
" clip-path="url(#pe3371541ab)" style="fill: none; stroke: #ff0000; stroke-width: 2"/>
    <path d="M 210.90642 57.867241 
L 210.90642 53.348174 
" clip-path="url(#pe3371541ab)" style="fill: none; stroke: #ff0000; stroke-width: 2"/>
    <path d="M 216.824602 60.908245 
L 216.824602 52.710338 
" clip-path="url(#pe3371541ab)" style="fill: none; stroke: #ff0000; stroke-width: 2"/>
    <path d="M 222.742784 60.185528 
L 222.742784 53.698257 
" clip-path="url(#pe3371541ab)" style="fill: none; stroke: #ff0000; stroke-width: 2"/>
    <path d="M 228.660966 59.21241 
L 228.660966 53.855743 
" clip-path="url(#pe3371541ab)" style="fill: none; stroke: #ff0000; stroke-width: 2"/>
    <path d="M 234.579148 58.463916 
L 234.579148 53.409072 
" clip-path="url(#pe3371541ab)" style="fill: none; stroke: #ff0000; stroke-width: 2"/>
    <path d="M 240.49733 58.751782 
L 240.49733 54.987541 
" clip-path="url(#pe3371541ab)" style="fill: none; stroke: #ff0000; stroke-width: 2"/>
    <path d="M 548.242784 153.84835 
L 548.242784 97.774429 
" clip-path="url(#pe3371541ab)" style="fill: none; stroke: #ff0000; stroke-width: 2"/>
    <path d="M 808.642784 288.437813 
L 808.642784 141.450188 
" clip-path="url(#pe3371541ab)" style="fill: none; stroke: #ff0000; stroke-width: 2"/>
   </g>
   <g id="line2d_16">
    <defs>
     <path id="mf65e3122df" d="M 5 0 
L -5 -0 
" style="stroke: #ff0000"/>
    </defs>
    <g clip-path="url(#pe3371541ab)">
     <use xlink:href="#mf65e3122df" x="98.460966" y="56.875792" style="fill: #ff0000; stroke: #ff0000"/>
     <use xlink:href="#mf65e3122df" x="104.379148" y="56.34358" style="fill: #ff0000; stroke: #ff0000"/>
     <use xlink:href="#mf65e3122df" x="110.29733" y="56.90665" style="fill: #ff0000; stroke: #ff0000"/>
     <use xlink:href="#mf65e3122df" x="116.215511" y="57.121593" style="fill: #ff0000; stroke: #ff0000"/>
     <use xlink:href="#mf65e3122df" x="122.133693" y="56.440938" style="fill: #ff0000; stroke: #ff0000"/>
     <use xlink:href="#mf65e3122df" x="128.051875" y="56.669721" style="fill: #ff0000; stroke: #ff0000"/>
     <use xlink:href="#mf65e3122df" x="133.970057" y="56.388278" style="fill: #ff0000; stroke: #ff0000"/>
     <use xlink:href="#mf65e3122df" x="139.888239" y="57.00376" style="fill: #ff0000; stroke: #ff0000"/>
     <use xlink:href="#mf65e3122df" x="145.80642" y="57.524398" style="fill: #ff0000; stroke: #ff0000"/>
     <use xlink:href="#mf65e3122df" x="151.724602" y="57.2483" style="fill: #ff0000; stroke: #ff0000"/>
     <use xlink:href="#mf65e3122df" x="157.642784" y="57.749462" style="fill: #ff0000; stroke: #ff0000"/>
     <use xlink:href="#mf65e3122df" x="163.560966" y="57.328143" style="fill: #ff0000; stroke: #ff0000"/>
     <use xlink:href="#mf65e3122df" x="169.479148" y="57.763078" style="fill: #ff0000; stroke: #ff0000"/>
     <use xlink:href="#mf65e3122df" x="175.39733" y="57.31848" style="fill: #ff0000; stroke: #ff0000"/>
     <use xlink:href="#mf65e3122df" x="181.315511" y="57.275481" style="fill: #ff0000; stroke: #ff0000"/>
     <use xlink:href="#mf65e3122df" x="187.233693" y="57.193966" style="fill: #ff0000; stroke: #ff0000"/>
     <use xlink:href="#mf65e3122df" x="193.151875" y="58.505202" style="fill: #ff0000; stroke: #ff0000"/>
     <use xlink:href="#mf65e3122df" x="199.070057" y="57.759862" style="fill: #ff0000; stroke: #ff0000"/>
     <use xlink:href="#mf65e3122df" x="204.988239" y="57.460332" style="fill: #ff0000; stroke: #ff0000"/>
     <use xlink:href="#mf65e3122df" x="210.90642" y="57.867241" style="fill: #ff0000; stroke: #ff0000"/>
     <use xlink:href="#mf65e3122df" x="216.824602" y="60.908245" style="fill: #ff0000; stroke: #ff0000"/>
     <use xlink:href="#mf65e3122df" x="222.742784" y="60.185528" style="fill: #ff0000; stroke: #ff0000"/>
     <use xlink:href="#mf65e3122df" x="228.660966" y="59.21241" style="fill: #ff0000; stroke: #ff0000"/>
     <use xlink:href="#mf65e3122df" x="234.579148" y="58.463916" style="fill: #ff0000; stroke: #ff0000"/>
     <use xlink:href="#mf65e3122df" x="240.49733" y="58.751782" style="fill: #ff0000; stroke: #ff0000"/>
     <use xlink:href="#mf65e3122df" x="548.242784" y="153.84835" style="fill: #ff0000; stroke: #ff0000"/>
     <use xlink:href="#mf65e3122df" x="808.642784" y="288.437813" style="fill: #ff0000; stroke: #ff0000"/>
    </g>
   </g>
   <g id="line2d_17">
    <g clip-path="url(#pe3371541ab)">
     <use xlink:href="#mf65e3122df" x="98.460966" y="44.745496" style="fill: #ff0000; stroke: #ff0000"/>
     <use xlink:href="#mf65e3122df" x="104.379148" y="48.256245" style="fill: #ff0000; stroke: #ff0000"/>
     <use xlink:href="#mf65e3122df" x="110.29733" y="50.386176" style="fill: #ff0000; stroke: #ff0000"/>
     <use xlink:href="#mf65e3122df" x="116.215511" y="51.005069" style="fill: #ff0000; stroke: #ff0000"/>
     <use xlink:href="#mf65e3122df" x="122.133693" y="48.919935" style="fill: #ff0000; stroke: #ff0000"/>
     <use xlink:href="#mf65e3122df" x="128.051875" y="50.621239" style="fill: #ff0000; stroke: #ff0000"/>
     <use xlink:href="#mf65e3122df" x="133.970057" y="51.510592" style="fill: #ff0000; stroke: #ff0000"/>
     <use xlink:href="#mf65e3122df" x="139.888239" y="50.958272" style="fill: #ff0000; stroke: #ff0000"/>
     <use xlink:href="#mf65e3122df" x="145.80642" y="53.069836" style="fill: #ff0000; stroke: #ff0000"/>
     <use xlink:href="#mf65e3122df" x="151.724602" y="53.586551" style="fill: #ff0000; stroke: #ff0000"/>
     <use xlink:href="#mf65e3122df" x="157.642784" y="53.132702" style="fill: #ff0000; stroke: #ff0000"/>
     <use xlink:href="#mf65e3122df" x="163.560966" y="53.920707" style="fill: #ff0000; stroke: #ff0000"/>
     <use xlink:href="#mf65e3122df" x="169.479148" y="53.308531" style="fill: #ff0000; stroke: #ff0000"/>
     <use xlink:href="#mf65e3122df" x="175.39733" y="53.922957" style="fill: #ff0000; stroke: #ff0000"/>
     <use xlink:href="#mf65e3122df" x="181.315511" y="53.383007" style="fill: #ff0000; stroke: #ff0000"/>
     <use xlink:href="#mf65e3122df" x="187.233693" y="53.09166" style="fill: #ff0000; stroke: #ff0000"/>
     <use xlink:href="#mf65e3122df" x="193.151875" y="53.070449" style="fill: #ff0000; stroke: #ff0000"/>
     <use xlink:href="#mf65e3122df" x="199.070057" y="53.983496" style="fill: #ff0000; stroke: #ff0000"/>
     <use xlink:href="#mf65e3122df" x="204.988239" y="54.653372" style="fill: #ff0000; stroke: #ff0000"/>
     <use xlink:href="#mf65e3122df" x="210.90642" y="53.348174" style="fill: #ff0000; stroke: #ff0000"/>
     <use xlink:href="#mf65e3122df" x="216.824602" y="52.710338" style="fill: #ff0000; stroke: #ff0000"/>
     <use xlink:href="#mf65e3122df" x="222.742784" y="53.698257" style="fill: #ff0000; stroke: #ff0000"/>
     <use xlink:href="#mf65e3122df" x="228.660966" y="53.855743" style="fill: #ff0000; stroke: #ff0000"/>
     <use xlink:href="#mf65e3122df" x="234.579148" y="53.409072" style="fill: #ff0000; stroke: #ff0000"/>
     <use xlink:href="#mf65e3122df" x="240.49733" y="54.987541" style="fill: #ff0000; stroke: #ff0000"/>
     <use xlink:href="#mf65e3122df" x="548.242784" y="97.774429" style="fill: #ff0000; stroke: #ff0000"/>
     <use xlink:href="#mf65e3122df" x="808.642784" y="141.450188" style="fill: #ff0000; stroke: #ff0000"/>
    </g>
   </g>
   <g id="line2d_18">
    <path d="M 98.460966 36.437813 
L 104.379148 42.807896 
L 110.29733 42.871603 
L 116.215511 47.570561 
L 122.133693 43.272273 
L 128.051875 45.95021 
L 133.970057 48.885377 
L 139.888239 48.021956 
L 145.80642 49.742025 
L 151.724602 50.86656 
L 157.642784 48.162262 
L 163.560966 52.474333 
L 169.479148 48.50307 
L 175.39733 50.588292 
L 181.315511 49.599261 
L 187.233693 49.675407 
L 193.151875 45.587813 
L 199.070057 51.74546 
L 204.988239 52.694344 
L 210.90642 47.722924 
L 216.824602 52.652052 
L 222.742784 54.239747 
L 228.660966 52.229311 
L 234.579148 48.906626 
L 240.49733 53.216129 
L 548.242784 70.381938 
L 808.642784 105.607 
" clip-path="url(#pe3371541ab)" style="fill: none; stroke: #ff0000; stroke-width: 0.5; stroke-linecap: square"/>
    <defs>
     <path id="md189926222" d="M -3 3 
L 3 3 
L 3 -3 
L -3 -3 
z
" style="stroke: #ff0000; stroke-linejoin: miter"/>
    </defs>
    <g clip-path="url(#pe3371541ab)">
     <use xlink:href="#md189926222" x="98.460966" y="36.437813" style="fill: #ff0000; stroke: #ff0000; stroke-linejoin: miter"/>
     <use xlink:href="#md189926222" x="104.379148" y="42.807896" style="fill: #ff0000; stroke: #ff0000; stroke-linejoin: miter"/>
     <use xlink:href="#md189926222" x="110.29733" y="42.871603" style="fill: #ff0000; stroke: #ff0000; stroke-linejoin: miter"/>
     <use xlink:href="#md189926222" x="116.215511" y="47.570561" style="fill: #ff0000; stroke: #ff0000; stroke-linejoin: miter"/>
     <use xlink:href="#md189926222" x="122.133693" y="43.272273" style="fill: #ff0000; stroke: #ff0000; stroke-linejoin: miter"/>
     <use xlink:href="#md189926222" x="128.051875" y="45.95021" style="fill: #ff0000; stroke: #ff0000; stroke-linejoin: miter"/>
     <use xlink:href="#md189926222" x="133.970057" y="48.885377" style="fill: #ff0000; stroke: #ff0000; stroke-linejoin: miter"/>
     <use xlink:href="#md189926222" x="139.888239" y="48.021956" style="fill: #ff0000; stroke: #ff0000; stroke-linejoin: miter"/>
     <use xlink:href="#md189926222" x="145.80642" y="49.742025" style="fill: #ff0000; stroke: #ff0000; stroke-linejoin: miter"/>
     <use xlink:href="#md189926222" x="151.724602" y="50.86656" style="fill: #ff0000; stroke: #ff0000; stroke-linejoin: miter"/>
     <use xlink:href="#md189926222" x="157.642784" y="48.162262" style="fill: #ff0000; stroke: #ff0000; stroke-linejoin: miter"/>
     <use xlink:href="#md189926222" x="163.560966" y="52.474333" style="fill: #ff0000; stroke: #ff0000; stroke-linejoin: miter"/>
     <use xlink:href="#md189926222" x="169.479148" y="48.50307" style="fill: #ff0000; stroke: #ff0000; stroke-linejoin: miter"/>
     <use xlink:href="#md189926222" x="175.39733" y="50.588292" style="fill: #ff0000; stroke: #ff0000; stroke-linejoin: miter"/>
     <use xlink:href="#md189926222" x="181.315511" y="49.599261" style="fill: #ff0000; stroke: #ff0000; stroke-linejoin: miter"/>
     <use xlink:href="#md189926222" x="187.233693" y="49.675407" style="fill: #ff0000; stroke: #ff0000; stroke-linejoin: miter"/>
     <use xlink:href="#md189926222" x="193.151875" y="45.587813" style="fill: #ff0000; stroke: #ff0000; stroke-linejoin: miter"/>
     <use xlink:href="#md189926222" x="199.070057" y="51.74546" style="fill: #ff0000; stroke: #ff0000; stroke-linejoin: miter"/>
     <use xlink:href="#md189926222" x="204.988239" y="52.694344" style="fill: #ff0000; stroke: #ff0000; stroke-linejoin: miter"/>
     <use xlink:href="#md189926222" x="210.90642" y="47.722924" style="fill: #ff0000; stroke: #ff0000; stroke-linejoin: miter"/>
     <use xlink:href="#md189926222" x="216.824602" y="52.652052" style="fill: #ff0000; stroke: #ff0000; stroke-linejoin: miter"/>
     <use xlink:href="#md189926222" x="222.742784" y="54.239747" style="fill: #ff0000; stroke: #ff0000; stroke-linejoin: miter"/>
     <use xlink:href="#md189926222" x="228.660966" y="52.229311" style="fill: #ff0000; stroke: #ff0000; stroke-linejoin: miter"/>
     <use xlink:href="#md189926222" x="234.579148" y="48.906626" style="fill: #ff0000; stroke: #ff0000; stroke-linejoin: miter"/>
     <use xlink:href="#md189926222" x="240.49733" y="53.216129" style="fill: #ff0000; stroke: #ff0000; stroke-linejoin: miter"/>
     <use xlink:href="#md189926222" x="548.242784" y="70.381938" style="fill: #ff0000; stroke: #ff0000; stroke-linejoin: miter"/>
     <use xlink:href="#md189926222" x="808.642784" y="105.607" style="fill: #ff0000; stroke: #ff0000; stroke-linejoin: miter"/>
    </g>
   </g>
   <g id="line2d_19">
    <path d="M 98.460966 50.810644 
L 104.379148 52.299913 
L 110.29733 53.646413 
L 116.215511 54.063331 
L 122.133693 52.680437 
L 128.051875 53.64548 
L 133.970057 53.949435 
L 139.888239 53.981016 
L 145.80642 55.297117 
L 151.724602 55.417425 
L 157.642784 55.441082 
L 163.560966 55.624425 
L 169.479148 55.535804 
L 175.39733 55.620718 
L 181.315511 55.329244 
L 187.233693 55.142813 
L 193.151875 55.787825 
L 199.070057 55.871679 
L 204.988239 56.056852 
L 210.90642 55.607708 
L 216.824602 56.809291 
L 222.742784 56.941892 
L 228.660966 56.534076 
L 234.579148 55.936494 
L 240.49733 56.869662 
L 548.242784 125.811389 
L 808.642784 214.944 
" clip-path="url(#pe3371541ab)" style="fill: none; stroke-dasharray: 7.4,3.2; stroke-dashoffset: 0; stroke: #ff0000; stroke-width: 2"/>
    <defs>
     <path id="m9056144528" d="M 0 3 
C 0.795609 3 1.55874 2.683901 2.12132 2.12132 
C 2.683901 1.55874 3 0.795609 3 0 
C 3 -0.795609 2.683901 -1.55874 2.12132 -2.12132 
C 1.55874 -2.683901 0.795609 -3 0 -3 
C -0.795609 -3 -1.55874 -2.683901 -2.12132 -2.12132 
C -2.683901 -1.55874 -3 -0.795609 -3 0 
C -3 0.795609 -2.683901 1.55874 -2.12132 2.12132 
C -1.55874 2.683901 -0.795609 3 0 3 
z
" style="stroke: #ff0000"/>
    </defs>
    <g clip-path="url(#pe3371541ab)">
     <use xlink:href="#m9056144528" x="98.460966" y="50.810644" style="fill: #ff0000; stroke: #ff0000"/>
     <use xlink:href="#m9056144528" x="104.379148" y="52.299913" style="fill: #ff0000; stroke: #ff0000"/>
     <use xlink:href="#m9056144528" x="110.29733" y="53.646413" style="fill: #ff0000; stroke: #ff0000"/>
     <use xlink:href="#m9056144528" x="116.215511" y="54.063331" style="fill: #ff0000; stroke: #ff0000"/>
     <use xlink:href="#m9056144528" x="122.133693" y="52.680437" style="fill: #ff0000; stroke: #ff0000"/>
     <use xlink:href="#m9056144528" x="128.051875" y="53.64548" style="fill: #ff0000; stroke: #ff0000"/>
     <use xlink:href="#m9056144528" x="133.970057" y="53.949435" style="fill: #ff0000; stroke: #ff0000"/>
     <use xlink:href="#m9056144528" x="139.888239" y="53.981016" style="fill: #ff0000; stroke: #ff0000"/>
     <use xlink:href="#m9056144528" x="145.80642" y="55.297117" style="fill: #ff0000; stroke: #ff0000"/>
     <use xlink:href="#m9056144528" x="151.724602" y="55.417425" style="fill: #ff0000; stroke: #ff0000"/>
     <use xlink:href="#m9056144528" x="157.642784" y="55.441082" style="fill: #ff0000; stroke: #ff0000"/>
     <use xlink:href="#m9056144528" x="163.560966" y="55.624425" style="fill: #ff0000; stroke: #ff0000"/>
     <use xlink:href="#m9056144528" x="169.479148" y="55.535804" style="fill: #ff0000; stroke: #ff0000"/>
     <use xlink:href="#m9056144528" x="175.39733" y="55.620718" style="fill: #ff0000; stroke: #ff0000"/>
     <use xlink:href="#m9056144528" x="181.315511" y="55.329244" style="fill: #ff0000; stroke: #ff0000"/>
     <use xlink:href="#m9056144528" x="187.233693" y="55.142813" style="fill: #ff0000; stroke: #ff0000"/>
     <use xlink:href="#m9056144528" x="193.151875" y="55.787825" style="fill: #ff0000; stroke: #ff0000"/>
     <use xlink:href="#m9056144528" x="199.070057" y="55.871679" style="fill: #ff0000; stroke: #ff0000"/>
     <use xlink:href="#m9056144528" x="204.988239" y="56.056852" style="fill: #ff0000; stroke: #ff0000"/>
     <use xlink:href="#m9056144528" x="210.90642" y="55.607708" style="fill: #ff0000; stroke: #ff0000"/>
     <use xlink:href="#m9056144528" x="216.824602" y="56.809291" style="fill: #ff0000; stroke: #ff0000"/>
     <use xlink:href="#m9056144528" x="222.742784" y="56.941892" style="fill: #ff0000; stroke: #ff0000"/>
     <use xlink:href="#m9056144528" x="228.660966" y="56.534076" style="fill: #ff0000; stroke: #ff0000"/>
     <use xlink:href="#m9056144528" x="234.579148" y="55.936494" style="fill: #ff0000; stroke: #ff0000"/>
     <use xlink:href="#m9056144528" x="240.49733" y="56.869662" style="fill: #ff0000; stroke: #ff0000"/>
     <use xlink:href="#m9056144528" x="548.242784" y="125.811389" style="fill: #ff0000; stroke: #ff0000"/>
     <use xlink:href="#m9056144528" x="808.642784" y="214.944" style="fill: #ff0000; stroke: #ff0000"/>
    </g>
   </g>
   <g id="patch_3">
    <path d="M 62.951875 301.037813 
L 62.951875 23.837813 
" style="fill: none; stroke: #000000; stroke-width: 0.8; stroke-linejoin: miter; stroke-linecap: square"/>
   </g>
   <g id="patch_4">
    <path d="M 844.151875 301.037813 
L 844.151875 23.837813 
" style="fill: none; stroke: #000000; stroke-width: 0.8; stroke-linejoin: miter; stroke-linecap: square"/>
   </g>
   <g id="patch_5">
    <path d="M 62.951875 301.037812 
L 844.151875 301.037812 
" style="fill: none; stroke: #000000; stroke-width: 0.8; stroke-linejoin: miter; stroke-linecap: square"/>
   </g>
   <g id="patch_6">
    <path d="M 62.951875 23.837812 
L 844.151875 23.837812 
" style="fill: none; stroke: #000000; stroke-width: 0.8; stroke-linejoin: miter; stroke-linecap: square"/>
   </g>
   <g id="text_18">
    <!-- Transmission Probability vs Chain Length -->
    <g transform="translate(310.509063 17.837812)scale(0.14 -0.14)">
     <defs>
      <path id="DejaVuSans-76" d="M 191 3500 
L 800 3500 
L 1894 563 
L 2988 3500 
L 3597 3500 
L 2284 0 
L 1503 0 
L 191 3500 
z
" transform="scale(0.015625)"/>
     </defs>
     <use xlink:href="#DejaVuSans-54"/>
     <use xlink:href="#DejaVuSans-72" x="46.333984"/>
     <use xlink:href="#DejaVuSans-61" x="87.447266"/>
     <use xlink:href="#DejaVuSans-6e" x="148.726562"/>
     <use xlink:href="#DejaVuSans-73" x="212.105469"/>
     <use xlink:href="#DejaVuSans-6d" x="264.205078"/>
     <use xlink:href="#DejaVuSans-69" x="361.617188"/>
     <use xlink:href="#DejaVuSans-73" x="389.400391"/>
     <use xlink:href="#DejaVuSans-73" x="441.5"/>
     <use xlink:href="#DejaVuSans-69" x="493.599609"/>
     <use xlink:href="#DejaVuSans-6f" x="521.382812"/>
     <use xlink:href="#DejaVuSans-6e" x="582.564453"/>
     <use xlink:href="#DejaVuSans-20" x="645.943359"/>
     <use xlink:href="#DejaVuSans-50" x="677.730469"/>
     <use xlink:href="#DejaVuSans-72" x="736.283203"/>
     <use xlink:href="#DejaVuSans-6f" x="775.146484"/>
     <use xlink:href="#DejaVuSans-62" x="836.328125"/>
     <use xlink:href="#DejaVuSans-61" x="899.804688"/>
     <use xlink:href="#DejaVuSans-62" x="961.083984"/>
     <use xlink:href="#DejaVuSans-69" x="1024.560547"/>
     <use xlink:href="#DejaVuSans-6c" x="1052.34375"/>
     <use xlink:href="#DejaVuSans-69" x="1080.126953"/>
     <use xlink:href="#DejaVuSans-74" x="1107.910156"/>
     <use xlink:href="#DejaVuSans-79" x="1147.119141"/>
     <use xlink:href="#DejaVuSans-20" x="1206.298828"/>
     <use xlink:href="#DejaVuSans-76" x="1238.085938"/>
     <use xlink:href="#DejaVuSans-73" x="1297.265625"/>
     <use xlink:href="#DejaVuSans-20" x="1349.365234"/>
     <use xlink:href="#DejaVuSans-43" x="1381.152344"/>
     <use xlink:href="#DejaVuSans-68" x="1450.976562"/>
     <use xlink:href="#DejaVuSans-61" x="1514.355469"/>
     <use xlink:href="#DejaVuSans-69" x="1575.634766"/>
     <use xlink:href="#DejaVuSans-6e" x="1603.417969"/>
     <use xlink:href="#DejaVuSans-20" x="1666.796875"/>
     <use xlink:href="#DejaVuSans-4c" x="1698.583984"/>
     <use xlink:href="#DejaVuSans-65" x="1752.546875"/>
     <use xlink:href="#DejaVuSans-6e" x="1814.070312"/>
     <use xlink:href="#DejaVuSans-67" x="1877.449219"/>
     <use xlink:href="#DejaVuSans-74" x="1940.925781"/>
     <use xlink:href="#DejaVuSans-68" x="1980.134766"/>
    </g>
   </g>
   <g id="legend_1">
    <g id="patch_7">
     <path d="M 658.343437 55.587187 
L 834.351875 55.587187 
Q 837.151875 55.587187 837.151875 52.787187 
L 837.151875 33.637812 
Q 837.151875 30.837812 834.351875 30.837812 
L 658.343437 30.837812 
Q 655.543437 30.837812 655.543437 33.637812 
L 655.543437 52.787187 
Q 655.543437 55.587187 658.343437 55.587187 
z
" style="fill: #ffffff; opacity: 0.8; stroke: #cccccc; stroke-linejoin: miter"/>
    </g>
    <g id="LineCollection_2">
     <path d="M 675.143438 49.175625 
L 675.143438 35.175625 
" style="fill: none; stroke: #ff0000; stroke-width: 2"/>
    </g>
    <g id="line2d_20">
     <g>
      <use xlink:href="#mf65e3122df" x="675.143438" y="49.175625" style="fill: #ff0000; stroke: #ff0000"/>
     </g>
    </g>
    <g id="line2d_21">
     <g>
      <use xlink:href="#mf65e3122df" x="675.143438" y="35.175625" style="fill: #ff0000; stroke: #ff0000"/>
     </g>
    </g>
    <g id="line2d_22">
     <path d="M 661.143438 42.175625 
L 689.143438 42.175625 
" style="fill: none; stroke-dasharray: 7.4,3.2; stroke-dashoffset: 0; stroke: #ff0000; stroke-width: 2"/>
    </g>
    <g id="line2d_23">
     <g>
      <use xlink:href="#m9056144528" x="675.143438" y="42.175625" style="fill: #ff0000; stroke: #ff0000"/>
     </g>
    </g>
    <g id="text_19">
     <!-- GA (action-by-site) -->
     <g transform="translate(700.343438 47.075625)scale(0.14 -0.14)">
      <defs>
       <path id="DejaVuSans-47" d="M 3809 666 
L 3809 1919 
L 2778 1919 
L 2778 2438 
L 4434 2438 
L 4434 434 
Q 4069 175 3628 42 
Q 3188 -91 2688 -91 
Q 1594 -91 976 548 
Q 359 1188 359 2328 
Q 359 3472 976 4111 
Q 1594 4750 2688 4750 
Q 3144 4750 3555 4637 
Q 3966 4525 4313 4306 
L 4313 3634 
Q 3963 3931 3569 4081 
Q 3175 4231 2741 4231 
Q 1884 4231 1454 3753 
Q 1025 3275 1025 2328 
Q 1025 1384 1454 906 
Q 1884 428 2741 428 
Q 3075 428 3337 486 
Q 3600 544 3809 666 
z
" transform="scale(0.015625)"/>
       <path id="DejaVuSans-41" d="M 2188 4044 
L 1331 1722 
L 3047 1722 
L 2188 4044 
z
M 1831 4666 
L 2547 4666 
L 4325 0 
L 3669 0 
L 3244 1197 
L 1141 1197 
L 716 0 
L 50 0 
L 1831 4666 
z
" transform="scale(0.015625)"/>
       <path id="DejaVuSans-63" d="M 3122 3366 
L 3122 2828 
Q 2878 2963 2633 3030 
Q 2388 3097 2138 3097 
Q 1578 3097 1268 2742 
Q 959 2388 959 1747 
Q 959 1106 1268 751 
Q 1578 397 2138 397 
Q 2388 397 2633 464 
Q 2878 531 3122 666 
L 3122 134 
Q 2881 22 2623 -34 
Q 2366 -91 2075 -91 
Q 1284 -91 818 406 
Q 353 903 353 1747 
Q 353 2603 823 3093 
Q 1294 3584 2113 3584 
Q 2378 3584 2631 3529 
Q 2884 3475 3122 3366 
z
" transform="scale(0.015625)"/>
       <path id="DejaVuSans-2d" d="M 313 2009 
L 1997 2009 
L 1997 1497 
L 313 1497 
L 313 2009 
z
" transform="scale(0.015625)"/>
      </defs>
      <use xlink:href="#DejaVuSans-47"/>
      <use xlink:href="#DejaVuSans-41" x="77.490234"/>
      <use xlink:href="#DejaVuSans-20" x="145.898438"/>
      <use xlink:href="#DejaVuSans-28" x="177.685547"/>
      <use xlink:href="#DejaVuSans-61" x="216.699219"/>
      <use xlink:href="#DejaVuSans-63" x="277.978516"/>
      <use xlink:href="#DejaVuSans-74" x="332.958984"/>
      <use xlink:href="#DejaVuSans-69" x="372.167969"/>
      <use xlink:href="#DejaVuSans-6f" x="399.951172"/>
      <use xlink:href="#DejaVuSans-6e" x="461.132812"/>
      <use xlink:href="#DejaVuSans-2d" x="524.511719"/>
      <use xlink:href="#DejaVuSans-62" x="560.595703"/>
      <use xlink:href="#DejaVuSans-79" x="624.072266"/>
      <use xlink:href="#DejaVuSans-2d" x="681.501953"/>
      <use xlink:href="#DejaVuSans-73" x="717.585938"/>
      <use xlink:href="#DejaVuSans-69" x="769.685547"/>
      <use xlink:href="#DejaVuSans-74" x="797.46875"/>
      <use xlink:href="#DejaVuSans-65" x="836.677734"/>
      <use xlink:href="#DejaVuSans-29" x="898.201172"/>
     </g>
    </g>
   </g>
  </g>
 </g>
 <defs>
  <clipPath id="pe3371541ab">
   <rect x="62.951875" y="23.837812" width="781.2" height="277.2"/>
  </clipPath>
 </defs>
</svg>
