<?xml version="1.0" encoding="utf-8" standalone="no"?>
<!DOCTYPE svg PUBLIC "-//W3C//DTD SVG 1.1//EN"
  "http://www.w3.org/Graphics/SVG/1.1/DTD/svg11.dtd">
<svg xmlns:xlink="http://www.w3.org/1999/xlink" width="1133.488125pt" height="413.597812pt" viewBox="0 0 1133.488125 413.597812" xmlns="http://www.w3.org/2000/svg" version="1.1">
 <metadata>
  <rdf:RDF xmlns:dc="http://purl.org/dc/elements/1.1/" xmlns:cc="http://creativecommons.org/ns#" xmlns:rdf="http://www.w3.org/1999/02/22-rdf-syntax-ns#">
   <cc:Work>
    <dc:type rdf:resource="http://purl.org/dc/dcmitype/StillImage"/>
    <dc:date>2026-03-30T16:38:43.673695</dc:date>
    <dc:format>image/svg+xml</dc:format>
    <dc:creator>
     <cc:Agent>
      <dc:title>Matplotlib v3.5.3, https://matplotlib.org/</dc:title>
     </cc:Agent>
    </dc:creator>
   </cc:Work>
  </rdf:RDF>
 </metadata>
 <defs>
  <style type="text/css">*{stroke-linejoin: round; stroke-linecap: butt}</style>
 </defs>
 <g id="figure_1">
  <g id="patch_1">
   <path d="M 0 413.597812 
L 1133.488125 413.597812 
L 1133.488125 0 
L 0 0 
z
" style="fill: #ffffff"/>
  </g>
  <g id="axes_1">
   <g id="patch_2">
    <path d="M 75.738125 360.517187 
L 1126.288125 360.517187 
L 1126.288125 26.877187 
L 75.738125 26.877187 
z
" style="fill: #ffffff"/>
   </g>
   <g id="matplotlib.axis_1">
    <g id="xtick_1">
     <g id="line2d_1">
      <defs>
       <path id="m4e971993c0" d="M 0 0 
L 0 3.5 
" style="stroke: #000000; stroke-width: 0.8"/>
      </defs>
      <g>
       <use xlink:href="#m4e971993c0" x="123.490398" y="360.517187" style="stroke: #000000; stroke-width: 0.8"/>
      </g>
     </g>
     <g id="text_1">
      <!-- 16 -->
      <g transform="translate(112.037898 381.194375)scale(0.18 -0.18)">
       <defs>
        <path id="DejaVuSans-31" d="M 794 531 
L 1825 531 
L 1825 4091 
L 703 3866 
L 703 4441 
L 1819 4666 
L 2450 4666 
L 2450 531 
L 3481 531 
L 3481 0 
L 794 0 
L 794 531 
z
" transform="scale(0.015625)"/>
        <path id="DejaVuSans-36" d="M 2113 2584 
Q 1688 2584 1439 2293 
Q 1191 2003 1191 1497 
Q 1191 994 1439 701 
Q 1688 409 2113 409 
Q 2538 409 2786 701 
Q 3034 994 3034 1497 
Q 3034 2003 2786 2293 
Q 2538 2584 2113 2584 
z
M 3366 4563 
L 3366 3988 
Q 3128 4100 2886 4159 
Q 2644 4219 2406 4219 
Q 1781 4219 1451 3797 
Q 1122 3375 1075 2522 
Q 1259 2794 1537 2939 
Q 1816 3084 2150 3084 
Q 2853 3084 3261 2657 
Q 3669 2231 3669 1497 
Q 3669 778 3244 343 
Q 2819 -91 2113 -91 
Q 1303 -91 875 529 
Q 447 1150 447 2328 
Q 447 3434 972 4092 
Q 1497 4750 2381 4750 
Q 2619 4750 2861 4703 
Q 3103 4656 3366 4563 
z
" transform="scale(0.015625)"/>
       </defs>
       <use xlink:href="#DejaVuSans-31"/>
       <use xlink:href="#DejaVuSans-36" x="63.623047"/>
      </g>
     </g>
    </g>
    <g id="xtick_2">
     <g id="line2d_2">
      <g>
       <use xlink:href="#m4e971993c0" x="242.87108" y="360.517187" style="stroke: #000000; stroke-width: 0.8"/>
      </g>
     </g>
     <g id="text_2">
      <!-- 18 -->
      <g transform="translate(231.41858 381.194375)scale(0.18 -0.18)">
       <defs>
        <path id="DejaVuSans-38" d="M 2034 2216 
Q 1584 2216 1326 1975 
Q 1069 1734 1069 1313 
Q 1069 891 1326 650 
Q 1584 409 2034 409 
Q 2484 409 2743 651 
Q 3003 894 3003 1313 
Q 3003 1734 2745 1975 
Q 2488 2216 2034 2216 
z
M 1403 2484 
Q 997 2584 770 2862 
Q 544 3141 544 3541 
Q 544 4100 942 4425 
Q 1341 4750 2034 4750 
Q 2731 4750 3128 4425 
Q 3525 4100 3525 3541 
Q 3525 3141 3298 2862 
Q 3072 2584 2669 2484 
Q 3125 2378 3379 2068 
Q 3634 1759 3634 1313 
Q 3634 634 3220 271 
Q 2806 -91 2034 -91 
Q 1263 -91 848 271 
Q 434 634 434 1313 
Q 434 1759 690 2068 
Q 947 2378 1403 2484 
z
M 1172 3481 
Q 1172 3119 1398 2916 
Q 1625 2713 2034 2713 
Q 2441 2713 2670 2916 
Q 2900 3119 2900 3481 
Q 2900 3844 2670 4047 
Q 2441 4250 2034 4250 
Q 1625 4250 1398 4047 
Q 1172 3844 1172 3481 
z
" transform="scale(0.015625)"/>
       </defs>
       <use xlink:href="#DejaVuSans-31"/>
       <use xlink:href="#DejaVuSans-38" x="63.623047"/>
      </g>
     </g>
    </g>
    <g id="xtick_3">
     <g id="line2d_3">
      <g>
       <use xlink:href="#m4e971993c0" x="362.251761" y="360.517187" style="stroke: #000000; stroke-width: 0.8"/>
      </g>
     </g>
     <g id="text_3">
      <!-- 20 -->
      <g transform="translate(350.799261 381.194375)scale(0.18 -0.18)">
       <defs>
        <path id="DejaVuSans-32" d="M 1228 531 
L 3431 531 
L 3431 0 
L 469 0 
L 469 531 
Q 828 903 1448 1529 
Q 2069 2156 2228 2338 
Q 2531 2678 2651 2914 
Q 2772 3150 2772 3378 
Q 2772 3750 2511 3984 
Q 2250 4219 1831 4219 
Q 1534 4219 1204 4116 
Q 875 4013 500 3803 
L 500 4441 
Q 881 4594 1212 4672 
Q 1544 4750 1819 4750 
Q 2544 4750 2975 4387 
Q 3406 4025 3406 3419 
Q 3406 3131 3298 2873 
Q 3191 2616 2906 2266 
Q 2828 2175 2409 1742 
Q 1991 1309 1228 531 
z
" transform="scale(0.015625)"/>
        <path id="DejaVuSans-30" d="M 2034 4250 
Q 1547 4250 1301 3770 
Q 1056 3291 1056 2328 
Q 1056 1369 1301 889 
Q 1547 409 2034 409 
Q 2525 409 2770 889 
Q 3016 1369 3016 2328 
Q 3016 3291 2770 3770 
Q 2525 4250 2034 4250 
z
M 2034 4750 
Q 2819 4750 3233 4129 
Q 3647 3509 3647 2328 
Q 3647 1150 3233 529 
Q 2819 -91 2034 -91 
Q 1250 -91 836 529 
Q 422 1150 422 2328 
Q 422 3509 836 4129 
Q 1250 4750 2034 4750 
z
" transform="scale(0.015625)"/>
       </defs>
       <use xlink:href="#DejaVuSans-32"/>
       <use xlink:href="#DejaVuSans-30" x="63.623047"/>
      </g>
     </g>
    </g>
    <g id="xtick_4">
     <g id="line2d_4">
      <g>
       <use xlink:href="#m4e971993c0" x="481.632443" y="360.517187" style="stroke: #000000; stroke-width: 0.8"/>
      </g>
     </g>
     <g id="text_4">
      <!-- 22 -->
      <g transform="translate(470.179943 381.194375)scale(0.18 -0.18)">
       <use xlink:href="#DejaVuSans-32"/>
       <use xlink:href="#DejaVuSans-32" x="63.623047"/>
      </g>
     </g>
    </g>
    <g id="xtick_5">
     <g id="line2d_5">
      <g>
       <use xlink:href="#m4e971993c0" x="601.013125" y="360.517187" style="stroke: #000000; stroke-width: 0.8"/>
      </g>
     </g>
     <g id="text_5">
      <!-- 24 -->
      <g transform="translate(589.560625 381.194375)scale(0.18 -0.18)">
       <defs>
        <path id="DejaVuSans-34" d="M 2419 4116 
L 825 1625 
L 2419 1625 
L 2419 4116 
z
M 2253 4666 
L 3047 4666 
L 3047 1625 
L 3713 1625 
L 3713 1100 
L 3047 1100 
L 3047 0 
L 2419 0 
L 2419 1100 
L 313 1100 
L 313 1709 
L 2253 4666 
z
" transform="scale(0.015625)"/>
       </defs>
       <use xlink:href="#DejaVuSans-32"/>
       <use xlink:href="#DejaVuSans-34" x="63.623047"/>
      </g>
     </g>
    </g>
    <g id="xtick_6">
     <g id="line2d_6">
      <g>
       <use xlink:href="#m4e971993c0" x="720.393807" y="360.517187" style="stroke: #000000; stroke-width: 0.8"/>
      </g>
     </g>
     <g id="text_6">
      <!-- 26 -->
      <g transform="translate(708.941307 381.194375)scale(0.18 -0.18)">
       <use xlink:href="#DejaVuSans-32"/>
       <use xlink:href="#DejaVuSans-36" x="63.623047"/>
      </g>
     </g>
    </g>
    <g id="xtick_7">
     <g id="line2d_7">
      <g>
       <use xlink:href="#m4e971993c0" x="839.774489" y="360.517187" style="stroke: #000000; stroke-width: 0.8"/>
      </g>
     </g>
     <g id="text_7">
      <!-- 28 -->
      <g transform="translate(828.321989 381.194375)scale(0.18 -0.18)">
       <use xlink:href="#DejaVuSans-32"/>
       <use xlink:href="#DejaVuSans-38" x="63.623047"/>
      </g>
     </g>
    </g>
    <g id="xtick_8">
     <g id="line2d_8">
      <g>
       <use xlink:href="#m4e971993c0" x="959.15517" y="360.517187" style="stroke: #000000; stroke-width: 0.8"/>
      </g>
     </g>
     <g id="text_8">
      <!-- 30 -->
      <g transform="translate(947.70267 381.194375)scale(0.18 -0.18)">
       <defs>
        <path id="DejaVuSans-33" d="M 2597 2516 
Q 3050 2419 3304 2112 
Q 3559 1806 3559 1356 
Q 3559 666 3084 287 
Q 2609 -91 1734 -91 
Q 1441 -91 1130 -33 
Q 819 25 488 141 
L 488 750 
Q 750 597 1062 519 
Q 1375 441 1716 441 
Q 2309 441 2620 675 
Q 2931 909 2931 1356 
Q 2931 1769 2642 2001 
Q 2353 2234 1838 2234 
L 1294 2234 
L 1294 2753 
L 1863 2753 
Q 2328 2753 2575 2939 
Q 2822 3125 2822 3475 
Q 2822 3834 2567 4026 
Q 2313 4219 1838 4219 
Q 1578 4219 1281 4162 
Q 984 4106 628 3988 
L 628 4550 
Q 988 4650 1302 4700 
Q 1616 4750 1894 4750 
Q 2613 4750 3031 4423 
Q 3450 4097 3450 3541 
Q 3450 3153 3228 2886 
Q 3006 2619 2597 2516 
z
" transform="scale(0.015625)"/>
       </defs>
       <use xlink:href="#DejaVuSans-33"/>
       <use xlink:href="#DejaVuSans-30" x="63.623047"/>
      </g>
     </g>
    </g>
    <g id="xtick_9">
     <g id="line2d_9">
      <g>
       <use xlink:href="#m4e971993c0" x="1078.535852" y="360.517187" style="stroke: #000000; stroke-width: 0.8"/>
      </g>
     </g>
     <g id="text_9">
      <!-- 32 -->
      <g transform="translate(1067.083352 381.194375)scale(0.18 -0.18)">
       <use xlink:href="#DejaVuSans-33"/>
       <use xlink:href="#DejaVuSans-32" x="63.623047"/>
      </g>
     </g>
    </g>
    <g id="text_10">
     <!-- Chain Length $[N]$ -->
     <g transform="translate(524.603125 402.617812)scale(0.18 -0.18)">
      <defs>
       <path id="DejaVuSans-43" d="M 4122 4306 
L 4122 3641 
Q 3803 3938 3442 4084 
Q 3081 4231 2675 4231 
Q 1875 4231 1450 3742 
Q 1025 3253 1025 2328 
Q 1025 1406 1450 917 
Q 1875 428 2675 428 
Q 3081 428 3442 575 
Q 3803 722 4122 1019 
L 4122 359 
Q 3791 134 3420 21 
Q 3050 -91 2638 -91 
Q 1578 -91 968 557 
Q 359 1206 359 2328 
Q 359 3453 968 4101 
Q 1578 4750 2638 4750 
Q 3056 4750 3426 4639 
Q 3797 4528 4122 4306 
z
" transform="scale(0.015625)"/>
       <path id="DejaVuSans-68" d="M 3513 2113 
L 3513 0 
L 2938 0 
L 2938 2094 
Q 2938 2591 2744 2837 
Q 2550 3084 2163 3084 
Q 1697 3084 1428 2787 
Q 1159 2491 1159 1978 
L 1159 0 
L 581 0 
L 581 4863 
L 1159 4863 
L 1159 2956 
Q 1366 3272 1645 3428 
Q 1925 3584 2291 3584 
Q 2894 3584 3203 3211 
Q 3513 2838 3513 2113 
z
" transform="scale(0.015625)"/>
       <path id="DejaVuSans-61" d="M 2194 1759 
Q 1497 1759 1228 1600 
Q 959 1441 959 1056 
Q 959 750 1161 570 
Q 1363 391 1709 391 
Q 2188 391 2477 730 
Q 2766 1069 2766 1631 
L 2766 1759 
L 2194 1759 
z
M 3341 1997 
L 3341 0 
L 2766 0 
L 2766 531 
Q 2569 213 2275 61 
Q 1981 -91 1556 -91 
Q 1019 -91 701 211 
Q 384 513 384 1019 
Q 384 1609 779 1909 
Q 1175 2209 1959 2209 
L 2766 2209 
L 2766 2266 
Q 2766 2663 2505 2880 
Q 2244 3097 1772 3097 
Q 1472 3097 1187 3025 
Q 903 2953 641 2809 
L 641 3341 
Q 956 3463 1253 3523 
Q 1550 3584 1831 3584 
Q 2591 3584 2966 3190 
Q 3341 2797 3341 1997 
z
" transform="scale(0.015625)"/>
       <path id="DejaVuSans-69" d="M 603 3500 
L 1178 3500 
L 1178 0 
L 603 0 
L 603 3500 
z
M 603 4863 
L 1178 4863 
L 1178 4134 
L 603 4134 
L 603 4863 
z
" transform="scale(0.015625)"/>
       <path id="DejaVuSans-6e" d="M 3513 2113 
L 3513 0 
L 2938 0 
L 2938 2094 
Q 2938 2591 2744 2837 
Q 2550 3084 2163 3084 
Q 1697 3084 1428 2787 
Q 1159 2491 1159 1978 
L 1159 0 
L 581 0 
L 581 3500 
L 1159 3500 
L 1159 2956 
Q 1366 3272 1645 3428 
Q 1925 3584 2291 3584 
Q 2894 3584 3203 3211 
Q 3513 2838 3513 2113 
z
" transform="scale(0.015625)"/>
       <path id="DejaVuSans-20" transform="scale(0.015625)"/>
       <path id="DejaVuSans-4c" d="M 628 4666 
L 1259 4666 
L 1259 531 
L 3531 531 
L 3531 0 
L 628 0 
L 628 4666 
z
" transform="scale(0.015625)"/>
       <path id="DejaVuSans-65" d="M 3597 1894 
L 3597 1613 
L 953 1613 
Q 991 1019 1311 708 
Q 1631 397 2203 397 
Q 2534 397 2845 478 
Q 3156 559 3463 722 
L 3463 178 
Q 3153 47 2828 -22 
Q 2503 -91 2169 -91 
Q 1331 -91 842 396 
Q 353 884 353 1716 
Q 353 2575 817 3079 
Q 1281 3584 2069 3584 
Q 2775 3584 3186 3129 
Q 3597 2675 3597 1894 
z
M 3022 2063 
Q 3016 2534 2758 2815 
Q 2500 3097 2075 3097 
Q 1594 3097 1305 2825 
Q 1016 2553 972 2059 
L 3022 2063 
z
" transform="scale(0.015625)"/>
       <path id="DejaVuSans-67" d="M 2906 1791 
Q 2906 2416 2648 2759 
Q 2391 3103 1925 3103 
Q 1463 3103 1205 2759 
Q 947 2416 947 1791 
Q 947 1169 1205 825 
Q 1463 481 1925 481 
Q 2391 481 2648 825 
Q 2906 1169 2906 1791 
z
M 3481 434 
Q 3481 -459 3084 -895 
Q 2688 -1331 1869 -1331 
Q 1566 -1331 1297 -1286 
Q 1028 -1241 775 -1147 
L 775 -588 
Q 1028 -725 1275 -790 
Q 1522 -856 1778 -856 
Q 2344 -856 2625 -561 
Q 2906 -266 2906 331 
L 2906 616 
Q 2728 306 2450 153 
Q 2172 0 1784 0 
Q 1141 0 747 490 
Q 353 981 353 1791 
Q 353 2603 747 3093 
Q 1141 3584 1784 3584 
Q 2172 3584 2450 3431 
Q 2728 3278 2906 2969 
L 2906 3500 
L 3481 3500 
L 3481 434 
z
" transform="scale(0.015625)"/>
       <path id="DejaVuSans-74" d="M 1172 4494 
L 1172 3500 
L 2356 3500 
L 2356 3053 
L 1172 3053 
L 1172 1153 
Q 1172 725 1289 603 
Q 1406 481 1766 481 
L 2356 481 
L 2356 0 
L 1766 0 
Q 1100 0 847 248 
Q 594 497 594 1153 
L 594 3053 
L 172 3053 
L 172 3500 
L 594 3500 
L 594 4494 
L 1172 4494 
z
" transform="scale(0.015625)"/>
       <path id="DejaVuSans-5b" d="M 550 4863 
L 1875 4863 
L 1875 4416 
L 1125 4416 
L 1125 -397 
L 1875 -397 
L 1875 -844 
L 550 -844 
L 550 4863 
z
" transform="scale(0.015625)"/>
       <path id="DejaVuSans-Oblique-4e" d="M 1081 4666 
L 1931 4666 
L 3219 666 
L 4000 4666 
L 4616 4666 
L 3706 0 
L 2853 0 
L 1569 4025 
L 788 0 
L 172 0 
L 1081 4666 
z
" transform="scale(0.015625)"/>
       <path id="DejaVuSans-5d" d="M 1947 4863 
L 1947 -844 
L 622 -844 
L 622 -397 
L 1369 -397 
L 1369 4416 
L 622 4416 
L 622 4863 
L 1947 4863 
z
" transform="scale(0.015625)"/>
      </defs>
      <use xlink:href="#DejaVuSans-43" transform="translate(0 0.015625)"/>
      <use xlink:href="#DejaVuSans-68" transform="translate(69.824219 0.015625)"/>
      <use xlink:href="#DejaVuSans-61" transform="translate(133.203125 0.015625)"/>
      <use xlink:href="#DejaVuSans-69" transform="translate(194.482422 0.015625)"/>
      <use xlink:href="#DejaVuSans-6e" transform="translate(222.265625 0.015625)"/>
      <use xlink:href="#DejaVuSans-20" transform="translate(285.644531 0.015625)"/>
      <use xlink:href="#DejaVuSans-4c" transform="translate(317.431641 0.015625)"/>
      <use xlink:href="#DejaVuSans-65" transform="translate(373.144531 0.015625)"/>
      <use xlink:href="#DejaVuSans-6e" transform="translate(434.667969 0.015625)"/>
      <use xlink:href="#DejaVuSans-67" transform="translate(498.046875 0.015625)"/>
      <use xlink:href="#DejaVuSans-74" transform="translate(561.523438 0.015625)"/>
      <use xlink:href="#DejaVuSans-68" transform="translate(600.732422 0.015625)"/>
      <use xlink:href="#DejaVuSans-20" transform="translate(664.111328 0.015625)"/>
      <use xlink:href="#DejaVuSans-5b" transform="translate(695.898438 0.015625)"/>
      <use xlink:href="#DejaVuSans-Oblique-4e" transform="translate(734.912109 0.015625)"/>
      <use xlink:href="#DejaVuSans-5d" transform="translate(809.716797 0.015625)"/>
     </g>
    </g>
   </g>
   <g id="matplotlib.axis_2">
    <g id="ytick_1">
     <g id="line2d_10">
      <defs>
       <path id="mac949d019c" d="M 0 0 
L -3.5 0 
" style="stroke: #000000; stroke-width: 0.8"/>
      </defs>
      <g>
       <use xlink:href="#mac949d019c" x="75.738125" y="338.624449" style="stroke: #000000; stroke-width: 0.8"/>
      </g>
     </g>
     <g id="text_11">
      <!-- 0.60 -->
      <g transform="translate(28.66 345.463043)scale(0.18 -0.18)">
       <defs>
        <path id="DejaVuSans-2e" d="M 684 794 
L 1344 794 
L 1344 0 
L 684 0 
L 684 794 
z
" transform="scale(0.015625)"/>
       </defs>
       <use xlink:href="#DejaVuSans-30"/>
       <use xlink:href="#DejaVuSans-2e" x="63.623047"/>
       <use xlink:href="#DejaVuSans-36" x="95.410156"/>
       <use xlink:href="#DejaVuSans-30" x="159.033203"/>
      </g>
     </g>
    </g>
    <g id="ytick_2">
     <g id="line2d_11">
      <g>
       <use xlink:href="#mac949d019c" x="75.738125" y="299.99334" style="stroke: #000000; stroke-width: 0.8"/>
      </g>
     </g>
     <g id="text_12">
      <!-- 0.65 -->
      <g transform="translate(28.66 306.831934)scale(0.18 -0.18)">
       <defs>
        <path id="DejaVuSans-35" d="M 691 4666 
L 3169 4666 
L 3169 4134 
L 1269 4134 
L 1269 2991 
Q 1406 3038 1543 3061 
Q 1681 3084 1819 3084 
Q 2600 3084 3056 2656 
Q 3513 2228 3513 1497 
Q 3513 744 3044 326 
Q 2575 -91 1722 -91 
Q 1428 -91 1123 -41 
Q 819 9 494 109 
L 494 744 
Q 775 591 1075 516 
Q 1375 441 1709 441 
Q 2250 441 2565 725 
Q 2881 1009 2881 1497 
Q 2881 1984 2565 2268 
Q 2250 2553 1709 2553 
Q 1456 2553 1204 2497 
Q 953 2441 691 2322 
L 691 4666 
z
" transform="scale(0.015625)"/>
       </defs>
       <use xlink:href="#DejaVuSans-30"/>
       <use xlink:href="#DejaVuSans-2e" x="63.623047"/>
       <use xlink:href="#DejaVuSans-36" x="95.410156"/>
       <use xlink:href="#DejaVuSans-35" x="159.033203"/>
      </g>
     </g>
    </g>
    <g id="ytick_3">
     <g id="line2d_12">
      <g>
       <use xlink:href="#mac949d019c" x="75.738125" y="261.36223" style="stroke: #000000; stroke-width: 0.8"/>
      </g>
     </g>
     <g id="text_13">
      <!-- 0.70 -->
      <g transform="translate(28.66 268.200824)scale(0.18 -0.18)">
       <defs>
        <path id="DejaVuSans-37" d="M 525 4666 
L 3525 4666 
L 3525 4397 
L 1831 0 
L 1172 0 
L 2766 4134 
L 525 4134 
L 525 4666 
z
" transform="scale(0.015625)"/>
       </defs>
       <use xlink:href="#DejaVuSans-30"/>
       <use xlink:href="#DejaVuSans-2e" x="63.623047"/>
       <use xlink:href="#DejaVuSans-37" x="95.410156"/>
       <use xlink:href="#DejaVuSans-30" x="159.033203"/>
      </g>
     </g>
    </g>
    <g id="ytick_4">
     <g id="line2d_13">
      <g>
       <use xlink:href="#mac949d019c" x="75.738125" y="222.731121" style="stroke: #000000; stroke-width: 0.8"/>
      </g>
     </g>
     <g id="text_14">
      <!-- 0.75 -->
      <g transform="translate(28.66 229.569714)scale(0.18 -0.18)">
       <use xlink:href="#DejaVuSans-30"/>
       <use xlink:href="#DejaVuSans-2e" x="63.623047"/>
       <use xlink:href="#DejaVuSans-37" x="95.410156"/>
       <use xlink:href="#DejaVuSans-35" x="159.033203"/>
      </g>
     </g>
    </g>
    <g id="ytick_5">
     <g id="line2d_14">
      <g>
       <use xlink:href="#mac949d019c" x="75.738125" y="184.100011" style="stroke: #000000; stroke-width: 0.8"/>
      </g>
     </g>
     <g id="text_15">
      <!-- 0.80 -->
      <g transform="translate(28.66 190.938605)scale(0.18 -0.18)">
       <use xlink:href="#DejaVuSans-30"/>
       <use xlink:href="#DejaVuSans-2e" x="63.623047"/>
       <use xlink:href="#DejaVuSans-38" x="95.410156"/>
       <use xlink:href="#DejaVuSans-30" x="159.033203"/>
      </g>
     </g>
    </g>
    <g id="ytick_6">
     <g id="line2d_15">
      <g>
       <use xlink:href="#mac949d019c" x="75.738125" y="145.468901" style="stroke: #000000; stroke-width: 0.8"/>
      </g>
     </g>
     <g id="text_16">
      <!-- 0.85 -->
      <g transform="translate(28.66 152.307495)scale(0.18 -0.18)">
       <use xlink:href="#DejaVuSans-30"/>
       <use xlink:href="#DejaVuSans-2e" x="63.623047"/>
       <use xlink:href="#DejaVuSans-38" x="95.410156"/>
       <use xlink:href="#DejaVuSans-35" x="159.033203"/>
      </g>
     </g>
    </g>
    <g id="ytick_7">
     <g id="line2d_16">
      <g>
       <use xlink:href="#mac949d019c" x="75.738125" y="106.837792" style="stroke: #000000; stroke-width: 0.8"/>
      </g>
     </g>
     <g id="text_17">
      <!-- 0.90 -->
      <g transform="translate(28.66 113.676386)scale(0.18 -0.18)">
       <defs>
        <path id="DejaVuSans-39" d="M 703 97 
L 703 672 
Q 941 559 1184 500 
Q 1428 441 1663 441 
Q 2288 441 2617 861 
Q 2947 1281 2994 2138 
Q 2813 1869 2534 1725 
Q 2256 1581 1919 1581 
Q 1219 1581 811 2004 
Q 403 2428 403 3163 
Q 403 3881 828 4315 
Q 1253 4750 1959 4750 
Q 2769 4750 3195 4129 
Q 3622 3509 3622 2328 
Q 3622 1225 3098 567 
Q 2575 -91 1691 -91 
Q 1453 -91 1209 -44 
Q 966 3 703 97 
z
M 1959 2075 
Q 2384 2075 2632 2365 
Q 2881 2656 2881 3163 
Q 2881 3666 2632 3958 
Q 2384 4250 1959 4250 
Q 1534 4250 1286 3958 
Q 1038 3666 1038 3163 
Q 1038 2656 1286 2365 
Q 1534 2075 1959 2075 
z
" transform="scale(0.015625)"/>
       </defs>
       <use xlink:href="#DejaVuSans-30"/>
       <use xlink:href="#DejaVuSans-2e" x="63.623047"/>
       <use xlink:href="#DejaVuSans-39" x="95.410156"/>
       <use xlink:href="#DejaVuSans-30" x="159.033203"/>
      </g>
     </g>
    </g>
    <g id="ytick_8">
     <g id="line2d_17">
      <g>
       <use xlink:href="#mac949d019c" x="75.738125" y="68.206682" style="stroke: #000000; stroke-width: 0.8"/>
      </g>
     </g>
     <g id="text_18">
      <!-- 0.95 -->
      <g transform="translate(28.66 75.045276)scale(0.18 -0.18)">
       <use xlink:href="#DejaVuSans-30"/>
       <use xlink:href="#DejaVuSans-2e" x="63.623047"/>
       <use xlink:href="#DejaVuSans-39" x="95.410156"/>
       <use xlink:href="#DejaVuSans-35" x="159.033203"/>
      </g>
     </g>
    </g>
    <g id="ytick_9">
     <g id="line2d_18">
      <g>
       <use xlink:href="#mac949d019c" x="75.738125" y="29.575573" style="stroke: #000000; stroke-width: 0.8"/>
      </g>
     </g>
     <g id="text_19">
      <!-- 1.00 -->
      <g transform="translate(28.66 36.414166)scale(0.18 -0.18)">
       <use xlink:href="#DejaVuSans-31"/>
       <use xlink:href="#DejaVuSans-2e" x="63.623047"/>
       <use xlink:href="#DejaVuSans-30" x="95.410156"/>
       <use xlink:href="#DejaVuSans-30" x="159.033203"/>
      </g>
     </g>
    </g>
    <g id="text_20">
     <!-- Transmission Probability $[P(T)]$ -->
     <g transform="translate(20.88 331.847187)rotate(-90)scale(0.18 -0.18)">
      <defs>
       <path id="DejaVuSans-54" d="M -19 4666 
L 3928 4666 
L 3928 4134 
L 2272 4134 
L 2272 0 
L 1638 0 
L 1638 4134 
L -19 4134 
L -19 4666 
z
" transform="scale(0.015625)"/>
       <path id="DejaVuSans-72" d="M 2631 2963 
Q 2534 3019 2420 3045 
Q 2306 3072 2169 3072 
Q 1681 3072 1420 2755 
Q 1159 2438 1159 1844 
L 1159 0 
L 581 0 
L 581 3500 
L 1159 3500 
L 1159 2956 
Q 1341 3275 1631 3429 
Q 1922 3584 2338 3584 
Q 2397 3584 2469 3576 
Q 2541 3569 2628 3553 
L 2631 2963 
z
" transform="scale(0.015625)"/>
       <path id="DejaVuSans-73" d="M 2834 3397 
L 2834 2853 
Q 2591 2978 2328 3040 
Q 2066 3103 1784 3103 
Q 1356 3103 1142 2972 
Q 928 2841 928 2578 
Q 928 2378 1081 2264 
Q 1234 2150 1697 2047 
L 1894 2003 
Q 2506 1872 2764 1633 
Q 3022 1394 3022 966 
Q 3022 478 2636 193 
Q 2250 -91 1575 -91 
Q 1294 -91 989 -36 
Q 684 19 347 128 
L 347 722 
Q 666 556 975 473 
Q 1284 391 1588 391 
Q 1994 391 2212 530 
Q 2431 669 2431 922 
Q 2431 1156 2273 1281 
Q 2116 1406 1581 1522 
L 1381 1569 
Q 847 1681 609 1914 
Q 372 2147 372 2553 
Q 372 3047 722 3315 
Q 1072 3584 1716 3584 
Q 2034 3584 2315 3537 
Q 2597 3491 2834 3397 
z
" transform="scale(0.015625)"/>
       <path id="DejaVuSans-6d" d="M 3328 2828 
Q 3544 3216 3844 3400 
Q 4144 3584 4550 3584 
Q 5097 3584 5394 3201 
Q 5691 2819 5691 2113 
L 5691 0 
L 5113 0 
L 5113 2094 
Q 5113 2597 4934 2840 
Q 4756 3084 4391 3084 
Q 3944 3084 3684 2787 
Q 3425 2491 3425 1978 
L 3425 0 
L 2847 0 
L 2847 2094 
Q 2847 2600 2669 2842 
Q 2491 3084 2119 3084 
Q 1678 3084 1418 2786 
Q 1159 2488 1159 1978 
L 1159 0 
L 581 0 
L 581 3500 
L 1159 3500 
L 1159 2956 
Q 1356 3278 1631 3431 
Q 1906 3584 2284 3584 
Q 2666 3584 2933 3390 
Q 3200 3197 3328 2828 
z
" transform="scale(0.015625)"/>
       <path id="DejaVuSans-6f" d="M 1959 3097 
Q 1497 3097 1228 2736 
Q 959 2375 959 1747 
Q 959 1119 1226 758 
Q 1494 397 1959 397 
Q 2419 397 2687 759 
Q 2956 1122 2956 1747 
Q 2956 2369 2687 2733 
Q 2419 3097 1959 3097 
z
M 1959 3584 
Q 2709 3584 3137 3096 
Q 3566 2609 3566 1747 
Q 3566 888 3137 398 
Q 2709 -91 1959 -91 
Q 1206 -91 779 398 
Q 353 888 353 1747 
Q 353 2609 779 3096 
Q 1206 3584 1959 3584 
z
" transform="scale(0.015625)"/>
       <path id="DejaVuSans-50" d="M 1259 4147 
L 1259 2394 
L 2053 2394 
Q 2494 2394 2734 2622 
Q 2975 2850 2975 3272 
Q 2975 3691 2734 3919 
Q 2494 4147 2053 4147 
L 1259 4147 
z
M 628 4666 
L 2053 4666 
Q 2838 4666 3239 4311 
Q 3641 3956 3641 3272 
Q 3641 2581 3239 2228 
Q 2838 1875 2053 1875 
L 1259 1875 
L 1259 0 
L 628 0 
L 628 4666 
z
" transform="scale(0.015625)"/>
       <path id="DejaVuSans-62" d="M 3116 1747 
Q 3116 2381 2855 2742 
Q 2594 3103 2138 3103 
Q 1681 3103 1420 2742 
Q 1159 2381 1159 1747 
Q 1159 1113 1420 752 
Q 1681 391 2138 391 
Q 2594 391 2855 752 
Q 3116 1113 3116 1747 
z
M 1159 2969 
Q 1341 3281 1617 3432 
Q 1894 3584 2278 3584 
Q 2916 3584 3314 3078 
Q 3713 2572 3713 1747 
Q 3713 922 3314 415 
Q 2916 -91 2278 -91 
Q 1894 -91 1617 61 
Q 1341 213 1159 525 
L 1159 0 
L 581 0 
L 581 4863 
L 1159 4863 
L 1159 2969 
z
" transform="scale(0.015625)"/>
       <path id="DejaVuSans-6c" d="M 603 4863 
L 1178 4863 
L 1178 0 
L 603 0 
L 603 4863 
z
" transform="scale(0.015625)"/>
       <path id="DejaVuSans-79" d="M 2059 -325 
Q 1816 -950 1584 -1140 
Q 1353 -1331 966 -1331 
L 506 -1331 
L 506 -850 
L 844 -850 
Q 1081 -850 1212 -737 
Q 1344 -625 1503 -206 
L 1606 56 
L 191 3500 
L 800 3500 
L 1894 763 
L 2988 3500 
L 3597 3500 
L 2059 -325 
z
" transform="scale(0.015625)"/>
       <path id="DejaVuSans-Oblique-50" d="M 1081 4666 
L 2541 4666 
Q 3178 4666 3512 4369 
Q 3847 4072 3847 3500 
Q 3847 2731 3353 2303 
Q 2859 1875 1966 1875 
L 1172 1875 
L 806 0 
L 172 0 
L 1081 4666 
z
M 1613 4147 
L 1275 2394 
L 2069 2394 
Q 2606 2394 2893 2669 
Q 3181 2944 3181 3456 
Q 3181 3784 2986 3965 
Q 2791 4147 2438 4147 
L 1613 4147 
z
" transform="scale(0.015625)"/>
       <path id="DejaVuSans-28" d="M 1984 4856 
Q 1566 4138 1362 3434 
Q 1159 2731 1159 2009 
Q 1159 1288 1364 580 
Q 1569 -128 1984 -844 
L 1484 -844 
Q 1016 -109 783 600 
Q 550 1309 550 2009 
Q 550 2706 781 3412 
Q 1013 4119 1484 4856 
L 1984 4856 
z
" transform="scale(0.015625)"/>
       <path id="DejaVuSans-Oblique-54" d="M 378 4666 
L 4325 4666 
L 4225 4134 
L 2559 4134 
L 1759 0 
L 1125 0 
L 1925 4134 
L 275 4134 
L 378 4666 
z
" transform="scale(0.015625)"/>
       <path id="DejaVuSans-29" d="M 513 4856 
L 1013 4856 
Q 1481 4119 1714 3412 
Q 1947 2706 1947 2009 
Q 1947 1309 1714 600 
Q 1481 -109 1013 -844 
L 513 -844 
Q 928 -128 1133 580 
Q 1338 1288 1338 2009 
Q 1338 2731 1133 3434 
Q 928 4138 513 4856 
z
" transform="scale(0.015625)"/>
      </defs>
      <use xlink:href="#DejaVuSans-54" transform="translate(0 0.015625)"/>
      <use xlink:href="#DejaVuSans-72" transform="translate(61.083984 0.015625)"/>
      <use xlink:href="#DejaVuSans-61" transform="translate(102.197266 0.015625)"/>
      <use xlink:href="#DejaVuSans-6e" transform="translate(163.476562 0.015625)"/>
      <use xlink:href="#DejaVuSans-73" transform="translate(226.855469 0.015625)"/>
      <use xlink:href="#DejaVuSans-6d" transform="translate(278.955078 0.015625)"/>
      <use xlink:href="#DejaVuSans-69" transform="translate(376.367188 0.015625)"/>
      <use xlink:href="#DejaVuSans-73" transform="translate(404.150391 0.015625)"/>
      <use xlink:href="#DejaVuSans-73" transform="translate(456.25 0.015625)"/>
      <use xlink:href="#DejaVuSans-69" transform="translate(508.349609 0.015625)"/>
      <use xlink:href="#DejaVuSans-6f" transform="translate(536.132812 0.015625)"/>
      <use xlink:href="#DejaVuSans-6e" transform="translate(597.314453 0.015625)"/>
      <use xlink:href="#DejaVuSans-20" transform="translate(660.693359 0.015625)"/>
      <use xlink:href="#DejaVuSans-50" transform="translate(692.480469 0.015625)"/>
      <use xlink:href="#DejaVuSans-72" transform="translate(752.783203 0.015625)"/>
      <use xlink:href="#DejaVuSans-6f" transform="translate(793.896484 0.015625)"/>
      <use xlink:href="#DejaVuSans-62" transform="translate(855.078125 0.015625)"/>
      <use xlink:href="#DejaVuSans-61" transform="translate(918.554688 0.015625)"/>
      <use xlink:href="#DejaVuSans-62" transform="translate(979.833984 0.015625)"/>
      <use xlink:href="#DejaVuSans-69" transform="translate(1043.310547 0.015625)"/>
      <use xlink:href="#DejaVuSans-6c" transform="translate(1071.09375 0.015625)"/>
      <use xlink:href="#DejaVuSans-69" transform="translate(1098.876953 0.015625)"/>
      <use xlink:href="#DejaVuSans-74" transform="translate(1126.660156 0.015625)"/>
      <use xlink:href="#DejaVuSans-79" transform="translate(1165.869141 0.015625)"/>
      <use xlink:href="#DejaVuSans-20" transform="translate(1225.048828 0.015625)"/>
      <use xlink:href="#DejaVuSans-5b" transform="translate(1256.835938 0.015625)"/>
      <use xlink:href="#DejaVuSans-Oblique-50" transform="translate(1295.849609 0.015625)"/>
      <use xlink:href="#DejaVuSans-28" transform="translate(1356.152344 0.015625)"/>
      <use xlink:href="#DejaVuSans-Oblique-54" transform="translate(1395.166016 0.015625)"/>
      <use xlink:href="#DejaVuSans-29" transform="translate(1456.25 0.015625)"/>
      <use xlink:href="#DejaVuSans-5d" transform="translate(1495.263672 0.015625)"/>
     </g>
    </g>
   </g>
   <g id="LineCollection_1">
    <path d="M 123.490398 66.928167 
L 123.490398 59.243098 
" clip-path="url(#p6e62180bd9)" style="fill: none; stroke: #ff0000; stroke-width: 2"/>
    <path d="M 362.251761 67.4885 
L 362.251761 63.595733 
" clip-path="url(#p6e62180bd9)" style="fill: none; stroke: #ff0000; stroke-width: 2"/>
    <path d="M 601.013125 67.938581 
L 601.013125 63.378433 
" clip-path="url(#p6e62180bd9)" style="fill: none; stroke: #ff0000; stroke-width: 2"/>
    <path d="M 839.774489 67.016318 
L 839.774489 61.515758 
" clip-path="url(#p6e62180bd9)" style="fill: none; stroke: #ff0000; stroke-width: 2"/>
    <path d="M 1078.535852 68.447502 
L 1078.535852 65.268588 
" clip-path="url(#p6e62180bd9)" style="fill: none; stroke: #ff0000; stroke-width: 2"/>
   </g>
   <g id="line2d_19">
    <defs>
     <path id="mbe23e564ed" d="M 5 0 
L -5 -0 
" style="stroke: #ff0000"/>
    </defs>
    <g clip-path="url(#p6e62180bd9)">
     <use xlink:href="#mbe23e564ed" x="123.490398" y="66.928167" style="fill: #ff0000; stroke: #ff0000"/>
     <use xlink:href="#mbe23e564ed" x="362.251761" y="67.4885" style="fill: #ff0000; stroke: #ff0000"/>
     <use xlink:href="#mbe23e564ed" x="601.013125" y="67.938581" style="fill: #ff0000; stroke: #ff0000"/>
     <use xlink:href="#mbe23e564ed" x="839.774489" y="67.016318" style="fill: #ff0000; stroke: #ff0000"/>
     <use xlink:href="#mbe23e564ed" x="1078.535852" y="68.447502" style="fill: #ff0000; stroke: #ff0000"/>
    </g>
   </g>
   <g id="line2d_20">
    <g clip-path="url(#p6e62180bd9)">
     <use xlink:href="#mbe23e564ed" x="123.490398" y="59.243098" style="fill: #ff0000; stroke: #ff0000"/>
     <use xlink:href="#mbe23e564ed" x="362.251761" y="63.595733" style="fill: #ff0000; stroke: #ff0000"/>
     <use xlink:href="#mbe23e564ed" x="601.013125" y="63.378433" style="fill: #ff0000; stroke: #ff0000"/>
     <use xlink:href="#mbe23e564ed" x="839.774489" y="61.515758" style="fill: #ff0000; stroke: #ff0000"/>
     <use xlink:href="#mbe23e564ed" x="1078.535852" y="65.268588" style="fill: #ff0000; stroke: #ff0000"/>
    </g>
   </g>
   <g id="LineCollection_2">
    <path d="M 123.490398 94.663678 
L 123.490398 62.903295 
" clip-path="url(#p6e62180bd9)" style="fill: none; stroke: #008000; stroke-width: 2"/>
    <path d="M 362.251761 191.446797 
L 362.251761 42.042642 
" clip-path="url(#p6e62180bd9)" style="fill: none; stroke: #008000; stroke-width: 2"/>
    <path d="M 601.013125 245.003157 
L 601.013125 102.916617 
" clip-path="url(#p6e62180bd9)" style="fill: none; stroke: #008000; stroke-width: 2"/>
    <path d="M 839.774489 255.18485 
L 839.774489 128.552071 
" clip-path="url(#p6e62180bd9)" style="fill: none; stroke: #008000; stroke-width: 2"/>
    <path d="M 1078.535852 277.518207 
L 1078.535852 156.827936 
" clip-path="url(#p6e62180bd9)" style="fill: none; stroke: #008000; stroke-width: 2"/>
   </g>
   <g id="line2d_21">
    <defs>
     <path id="m99f74055b6" d="M 5 0 
L -5 -0 
" style="stroke: #008000"/>
    </defs>
    <g clip-path="url(#p6e62180bd9)">
     <use xlink:href="#m99f74055b6" x="123.490398" y="94.663678" style="fill: #008000; stroke: #008000"/>
     <use xlink:href="#m99f74055b6" x="362.251761" y="191.446797" style="fill: #008000; stroke: #008000"/>
     <use xlink:href="#m99f74055b6" x="601.013125" y="245.003157" style="fill: #008000; stroke: #008000"/>
     <use xlink:href="#m99f74055b6" x="839.774489" y="255.18485" style="fill: #008000; stroke: #008000"/>
     <use xlink:href="#m99f74055b6" x="1078.535852" y="277.518207" style="fill: #008000; stroke: #008000"/>
    </g>
   </g>
   <g id="line2d_22">
    <g clip-path="url(#p6e62180bd9)">
     <use xlink:href="#m99f74055b6" x="123.490398" y="62.903295" style="fill: #008000; stroke: #008000"/>
     <use xlink:href="#m99f74055b6" x="362.251761" y="42.042642" style="fill: #008000; stroke: #008000"/>
     <use xlink:href="#m99f74055b6" x="601.013125" y="102.916617" style="fill: #008000; stroke: #008000"/>
     <use xlink:href="#m99f74055b6" x="839.774489" y="128.552071" style="fill: #008000; stroke: #008000"/>
     <use xlink:href="#m99f74055b6" x="1078.535852" y="156.827936" style="fill: #008000; stroke: #008000"/>
    </g>
   </g>
   <g id="LineCollection_3">
    <path d="M 123.490398 109.655456 
L 123.490398 76.520994 
" clip-path="url(#p6e62180bd9)" style="fill: none; stroke: #0000ff; stroke-width: 2"/>
    <path d="M 362.251761 113.933524 
L 362.251761 90.369976 
" clip-path="url(#p6e62180bd9)" style="fill: none; stroke: #0000ff; stroke-width: 2"/>
    <path d="M 601.013125 150.31633 
L 601.013125 101.857171 
" clip-path="url(#p6e62180bd9)" style="fill: none; stroke: #0000ff; stroke-width: 2"/>
    <path d="M 839.774489 163.217091 
L 839.774489 83.247175 
" clip-path="url(#p6e62180bd9)" style="fill: none; stroke: #0000ff; stroke-width: 2"/>
    <path d="M 1078.535852 149.659171 
L 1078.535852 112.923688 
" clip-path="url(#p6e62180bd9)" style="fill: none; stroke: #0000ff; stroke-width: 2"/>
   </g>
   <g id="line2d_23">
    <defs>
     <path id="me9d865d105" d="M 5 0 
L -5 -0 
" style="stroke: #0000ff"/>
    </defs>
    <g clip-path="url(#p6e62180bd9)">
     <use xlink:href="#me9d865d105" x="123.490398" y="109.655456" style="fill: #0000ff; stroke: #0000ff"/>
     <use xlink:href="#me9d865d105" x="362.251761" y="113.933524" style="fill: #0000ff; stroke: #0000ff"/>
     <use xlink:href="#me9d865d105" x="601.013125" y="150.31633" style="fill: #0000ff; stroke: #0000ff"/>
     <use xlink:href="#me9d865d105" x="839.774489" y="163.217091" style="fill: #0000ff; stroke: #0000ff"/>
     <use xlink:href="#me9d865d105" x="1078.535852" y="149.659171" style="fill: #0000ff; stroke: #0000ff"/>
    </g>
   </g>
   <g id="line2d_24">
    <g clip-path="url(#p6e62180bd9)">
     <use xlink:href="#me9d865d105" x="123.490398" y="76.520994" style="fill: #0000ff; stroke: #0000ff"/>
     <use xlink:href="#me9d865d105" x="362.251761" y="90.369976" style="fill: #0000ff; stroke: #0000ff"/>
     <use xlink:href="#me9d865d105" x="601.013125" y="101.857171" style="fill: #0000ff; stroke: #0000ff"/>
     <use xlink:href="#me9d865d105" x="839.774489" y="83.247175" style="fill: #0000ff; stroke: #0000ff"/>
     <use xlink:href="#me9d865d105" x="1078.535852" y="112.923688" style="fill: #0000ff; stroke: #0000ff"/>
    </g>
   </g>
   <g id="LineCollection_4">
    <path d="M 123.490398 240.492054 
L 123.490398 107.886067 
" clip-path="url(#p6e62180bd9)" style="fill: none; stroke: #000000; stroke-width: 2"/>
    <path d="M 362.251761 337.993789 
L 362.251761 147.894277 
" clip-path="url(#p6e62180bd9)" style="fill: none; stroke: #000000; stroke-width: 2"/>
    <path d="M 601.013125 315.938163 
L 601.013125 150.203254 
" clip-path="url(#p6e62180bd9)" style="fill: none; stroke: #000000; stroke-width: 2"/>
    <path d="M 839.774489 337.418753 
L 839.774489 217.456703 
" clip-path="url(#p6e62180bd9)" style="fill: none; stroke: #000000; stroke-width: 2"/>
    <path d="M 1078.535852 345.351733 
L 1078.535852 197.052231 
" clip-path="url(#p6e62180bd9)" style="fill: none; stroke: #000000; stroke-width: 2"/>
   </g>
   <g id="line2d_25">
    <defs>
     <path id="mcaa0792af2" d="M 5 0 
L -5 -0 
" style="stroke: #000000"/>
    </defs>
    <g clip-path="url(#p6e62180bd9)">
     <use xlink:href="#mcaa0792af2" x="123.490398" y="240.492054" style="stroke: #000000"/>
     <use xlink:href="#mcaa0792af2" x="362.251761" y="337.993789" style="stroke: #000000"/>
     <use xlink:href="#mcaa0792af2" x="601.013125" y="315.938163" style="stroke: #000000"/>
     <use xlink:href="#mcaa0792af2" x="839.774489" y="337.418753" style="stroke: #000000"/>
     <use xlink:href="#mcaa0792af2" x="1078.535852" y="345.351733" style="stroke: #000000"/>
    </g>
   </g>
   <g id="line2d_26">
    <g clip-path="url(#p6e62180bd9)">
     <use xlink:href="#mcaa0792af2" x="123.490398" y="107.886067" style="stroke: #000000"/>
     <use xlink:href="#mcaa0792af2" x="362.251761" y="147.894277" style="stroke: #000000"/>
     <use xlink:href="#mcaa0792af2" x="601.013125" y="150.203254" style="stroke: #000000"/>
     <use xlink:href="#mcaa0792af2" x="839.774489" y="217.456703" style="stroke: #000000"/>
     <use xlink:href="#mcaa0792af2" x="1078.535852" y="197.052231" style="stroke: #000000"/>
    </g>
   </g>
   <g id="line2d_27">
    <path d="M 123.490398 63.085632 
L 362.251761 65.542117 
L 601.013125 65.658507 
L 839.774489 64.266038 
L 1078.535852 66.858045 
" clip-path="url(#p6e62180bd9)" style="fill: none; stroke-dasharray: 7.4,3.2; stroke-dashoffset: 0; stroke: #ff0000; stroke-width: 2"/>
    <defs>
     <path id="m78be95ee3f" d="M 0 3 
C 0.795609 3 1.55874 2.683901 2.12132 2.12132 
C 2.683901 1.55874 3 0.795609 3 0 
C 3 -0.795609 2.683901 -1.55874 2.12132 -2.12132 
C 1.55874 -2.683901 0.795609 -3 0 -3 
C -0.795609 -3 -1.55874 -2.683901 -2.12132 -2.12132 
C -2.683901 -1.55874 -3 -0.795609 -3 0 
C -3 0.795609 -2.683901 1.55874 -2.12132 2.12132 
C -1.55874 2.683901 -0.795609 3 0 3 
z
" style="stroke: #ff0000"/>
    </defs>
    <g clip-path="url(#p6e62180bd9)">
     <use xlink:href="#m78be95ee3f" x="123.490398" y="63.085632" style="fill: #ff0000; stroke: #ff0000"/>
     <use xlink:href="#m78be95ee3f" x="362.251761" y="65.542117" style="fill: #ff0000; stroke: #ff0000"/>
     <use xlink:href="#m78be95ee3f" x="601.013125" y="65.658507" style="fill: #ff0000; stroke: #ff0000"/>
     <use xlink:href="#m78be95ee3f" x="839.774489" y="64.266038" style="fill: #ff0000; stroke: #ff0000"/>
     <use xlink:href="#m78be95ee3f" x="1078.535852" y="66.858045" style="fill: #ff0000; stroke: #ff0000"/>
    </g>
   </g>
   <g id="line2d_28">
    <path d="M 123.490398 78.783487 
L 362.251761 116.744719 
L 601.013125 173.959887 
L 839.774489 191.86846 
L 1078.535852 217.173072 
" clip-path="url(#p6e62180bd9)" style="fill: none; stroke-dasharray: 7.4,3.2; stroke-dashoffset: 0; stroke: #008000; stroke-width: 2"/>
    <defs>
     <path id="m4b9dc07512" d="M 0 3 
C 0.795609 3 1.55874 2.683901 2.12132 2.12132 
C 2.683901 1.55874 3 0.795609 3 0 
C 3 -0.795609 2.683901 -1.55874 2.12132 -2.12132 
C 1.55874 -2.683901 0.795609 -3 0 -3 
C -0.795609 -3 -1.55874 -2.683901 -2.12132 -2.12132 
C -2.683901 -1.55874 -3 -0.795609 -3 0 
C -3 0.795609 -2.683901 1.55874 -2.12132 2.12132 
C -1.55874 2.683901 -0.795609 3 0 3 
z
" style="stroke: #008000"/>
    </defs>
    <g clip-path="url(#p6e62180bd9)">
     <use xlink:href="#m4b9dc07512" x="123.490398" y="78.783487" style="fill: #008000; stroke: #008000"/>
     <use xlink:href="#m4b9dc07512" x="362.251761" y="116.744719" style="fill: #008000; stroke: #008000"/>
     <use xlink:href="#m4b9dc07512" x="601.013125" y="173.959887" style="fill: #008000; stroke: #008000"/>
     <use xlink:href="#m4b9dc07512" x="839.774489" y="191.86846" style="fill: #008000; stroke: #008000"/>
     <use xlink:href="#m4b9dc07512" x="1078.535852" y="217.173072" style="fill: #008000; stroke: #008000"/>
    </g>
   </g>
   <g id="line2d_29">
    <path d="M 123.490398 93.088225 
L 362.251761 102.15175 
L 601.013125 126.086751 
L 839.774489 123.232133 
L 1078.535852 131.29143 
" clip-path="url(#p6e62180bd9)" style="fill: none; stroke-dasharray: 7.4,3.2; stroke-dashoffset: 0; stroke: #0000ff; stroke-width: 2"/>
    <defs>
     <path id="mb9564cf3f2" d="M 0 3 
C 0.795609 3 1.55874 2.683901 2.12132 2.12132 
C 2.683901 1.55874 3 0.795609 3 0 
C 3 -0.795609 2.683901 -1.55874 2.12132 -2.12132 
C 1.55874 -2.683901 0.795609 -3 0 -3 
C -0.795609 -3 -1.55874 -2.683901 -2.12132 -2.12132 
C -2.683901 -1.55874 -3 -0.795609 -3 0 
C -3 0.795609 -2.683901 1.55874 -2.12132 2.12132 
C -1.55874 2.683901 -0.795609 3 0 3 
z
" style="stroke: #0000ff"/>
    </defs>
    <g clip-path="url(#p6e62180bd9)">
     <use xlink:href="#mb9564cf3f2" x="123.490398" y="93.088225" style="fill: #0000ff; stroke: #0000ff"/>
     <use xlink:href="#mb9564cf3f2" x="362.251761" y="102.15175" style="fill: #0000ff; stroke: #0000ff"/>
     <use xlink:href="#mb9564cf3f2" x="601.013125" y="126.086751" style="fill: #0000ff; stroke: #0000ff"/>
     <use xlink:href="#mb9564cf3f2" x="839.774489" y="123.232133" style="fill: #0000ff; stroke: #0000ff"/>
     <use xlink:href="#mb9564cf3f2" x="1078.535852" y="131.29143" style="fill: #0000ff; stroke: #0000ff"/>
    </g>
   </g>
   <g id="line2d_30">
    <path d="M 123.490398 174.189061 
L 362.251761 242.944033 
L 601.013125 233.070708 
L 839.774489 277.437728 
L 1078.535852 271.201982 
" clip-path="url(#p6e62180bd9)" style="fill: none; stroke-dasharray: 7.4,3.2; stroke-dashoffset: 0; stroke: #000000; stroke-width: 2"/>
    <defs>
     <path id="m385b59508f" d="M 0 3 
C 0.795609 3 1.55874 2.683901 2.12132 2.12132 
C 2.683901 1.55874 3 0.795609 3 0 
C 3 -0.795609 2.683901 -1.55874 2.12132 -2.12132 
C 1.55874 -2.683901 0.795609 -3 0 -3 
C -0.795609 -3 -1.55874 -2.683901 -2.12132 -2.12132 
C -2.683901 -1.55874 -3 -0.795609 -3 0 
C -3 0.795609 -2.683901 1.55874 -2.12132 2.12132 
C -1.55874 2.683901 -0.795609 3 0 3 
z
" style="stroke: #000000"/>
    </defs>
    <g clip-path="url(#p6e62180bd9)">
     <use xlink:href="#m385b59508f" x="123.490398" y="174.189061" style="stroke: #000000"/>
     <use xlink:href="#m385b59508f" x="362.251761" y="242.944033" style="stroke: #000000"/>
     <use xlink:href="#m385b59508f" x="601.013125" y="233.070708" style="stroke: #000000"/>
     <use xlink:href="#m385b59508f" x="839.774489" y="277.437728" style="stroke: #000000"/>
     <use xlink:href="#m385b59508f" x="1078.535852" y="271.201982" style="stroke: #000000"/>
    </g>
   </g>
   <g id="patch_3">
    <path d="M 75.738125 360.517187 
L 75.738125 26.877187 
" style="fill: none; stroke: #000000; stroke-width: 0.8; stroke-linejoin: miter; stroke-linecap: square"/>
   </g>
   <g id="patch_4">
    <path d="M 1126.288125 360.517187 
L 1126.288125 26.877187 
" style="fill: none; stroke: #000000; stroke-width: 0.8; stroke-linejoin: miter; stroke-linecap: square"/>
   </g>
   <g id="patch_5">
    <path d="M 75.738125 360.517187 
L 1126.288125 360.517187 
" style="fill: none; stroke: #000000; stroke-width: 0.8; stroke-linejoin: miter; stroke-linecap: square"/>
   </g>
   <g id="patch_6">
    <path d="M 75.738125 26.877187 
L 1126.288125 26.877187 
" style="fill: none; stroke: #000000; stroke-width: 0.8; stroke-linejoin: miter; stroke-linecap: square"/>
   </g>
   <g id="text_21">
    <!-- Transmission Probability vs Chain Length -->
    <g transform="translate(417.100937 20.877187)scale(0.18 -0.18)">
     <defs>
      <path id="DejaVuSans-76" d="M 191 3500 
L 800 3500 
L 1894 563 
L 2988 3500 
L 3597 3500 
L 2284 0 
L 1503 0 
L 191 3500 
z
" transform="scale(0.015625)"/>
     </defs>
     <use xlink:href="#DejaVuSans-54"/>
     <use xlink:href="#DejaVuSans-72" x="46.333984"/>
     <use xlink:href="#DejaVuSans-61" x="87.447266"/>
     <use xlink:href="#DejaVuSans-6e" x="148.726562"/>
     <use xlink:href="#DejaVuSans-73" x="212.105469"/>
     <use xlink:href="#DejaVuSans-6d" x="264.205078"/>
     <use xlink:href="#DejaVuSans-69" x="361.617188"/>
     <use xlink:href="#DejaVuSans-73" x="389.400391"/>
     <use xlink:href="#DejaVuSans-73" x="441.5"/>
     <use xlink:href="#DejaVuSans-69" x="493.599609"/>
     <use xlink:href="#DejaVuSans-6f" x="521.382812"/>
     <use xlink:href="#DejaVuSans-6e" x="582.564453"/>
     <use xlink:href="#DejaVuSans-20" x="645.943359"/>
     <use xlink:href="#DejaVuSans-50" x="677.730469"/>
     <use xlink:href="#DejaVuSans-72" x="736.283203"/>
     <use xlink:href="#DejaVuSans-6f" x="775.146484"/>
     <use xlink:href="#DejaVuSans-62" x="836.328125"/>
     <use xlink:href="#DejaVuSans-61" x="899.804688"/>
     <use xlink:href="#DejaVuSans-62" x="961.083984"/>
     <use xlink:href="#DejaVuSans-69" x="1024.560547"/>
     <use xlink:href="#DejaVuSans-6c" x="1052.34375"/>
     <use xlink:href="#DejaVuSans-69" x="1080.126953"/>
     <use xlink:href="#DejaVuSans-74" x="1107.910156"/>
     <use xlink:href="#DejaVuSans-79" x="1147.119141"/>
     <use xlink:href="#DejaVuSans-20" x="1206.298828"/>
     <use xlink:href="#DejaVuSans-76" x="1238.085938"/>
     <use xlink:href="#DejaVuSans-73" x="1297.265625"/>
     <use xlink:href="#DejaVuSans-20" x="1349.365234"/>
     <use xlink:href="#DejaVuSans-43" x="1381.152344"/>
     <use xlink:href="#DejaVuSans-68" x="1450.976562"/>
     <use xlink:href="#DejaVuSans-61" x="1514.355469"/>
     <use xlink:href="#DejaVuSans-69" x="1575.634766"/>
     <use xlink:href="#DejaVuSans-6e" x="1603.417969"/>
     <use xlink:href="#DejaVuSans-20" x="1666.796875"/>
     <use xlink:href="#DejaVuSans-4c" x="1698.583984"/>
     <use xlink:href="#DejaVuSans-65" x="1752.546875"/>
     <use xlink:href="#DejaVuSans-6e" x="1814.070312"/>
     <use xlink:href="#DejaVuSans-67" x="1877.449219"/>
     <use xlink:href="#DejaVuSans-74" x="1940.925781"/>
     <use xlink:href="#DejaVuSans-68" x="1980.134766"/>
    </g>
   </g>
   <g id="legend_1">
    <g id="patch_7">
     <path d="M 86.938125 352.517187 
L 358.898125 352.517187 
Q 362.098125 352.517187 362.098125 349.317187 
L 362.098125 256.977187 
Q 362.098125 253.777187 358.898125 253.777187 
L 86.938125 253.777187 
Q 83.738125 253.777187 83.738125 256.977187 
L 83.738125 349.317187 
Q 83.738125 352.517187 86.938125 352.517187 
z
" style="fill: #ffffff; opacity: 0.8; stroke: #cccccc; stroke-linejoin: miter"/>
    </g>
    <g id="LineCollection_5">
     <path d="M 106.138125 274.734687 
L 106.138125 258.734687 
" style="fill: none; stroke: #ff0000; stroke-width: 2"/>
    </g>
    <g id="line2d_31">
     <g>
      <use xlink:href="#mbe23e564ed" x="106.138125" y="274.734687" style="fill: #ff0000; stroke: #ff0000"/>
     </g>
    </g>
    <g id="line2d_32">
     <g>
      <use xlink:href="#mbe23e564ed" x="106.138125" y="258.734687" style="fill: #ff0000; stroke: #ff0000"/>
     </g>
    </g>
    <g id="line2d_33">
     <path d="M 90.138125 266.734687 
L 122.138125 266.734687 
" style="fill: none; stroke-dasharray: 7.4,3.2; stroke-dashoffset: 0; stroke: #ff0000; stroke-width: 2"/>
    </g>
    <g id="line2d_34">
     <g>
      <use xlink:href="#m78be95ee3f" x="106.138125" y="266.734687" style="fill: #ff0000; stroke: #ff0000"/>
     </g>
    </g>
    <g id="text_22">
     <!-- GA (action-by-site), ε=0.1 -->
     <g transform="translate(134.938125 272.334687)scale(0.16 -0.16)">
      <defs>
       <path id="DejaVuSans-47" d="M 3809 666 
L 3809 1919 
L 2778 1919 
L 2778 2438 
L 4434 2438 
L 4434 434 
Q 4069 175 3628 42 
Q 3188 -91 2688 -91 
Q 1594 -91 976 548 
Q 359 1188 359 2328 
Q 359 3472 976 4111 
Q 1594 4750 2688 4750 
Q 3144 4750 3555 4637 
Q 3966 4525 4313 4306 
L 4313 3634 
Q 3963 3931 3569 4081 
Q 3175 4231 2741 4231 
Q 1884 4231 1454 3753 
Q 1025 3275 1025 2328 
Q 1025 1384 1454 906 
Q 1884 428 2741 428 
Q 3075 428 3337 486 
Q 3600 544 3809 666 
z
" transform="scale(0.015625)"/>
       <path id="DejaVuSans-41" d="M 2188 4044 
L 1331 1722 
L 3047 1722 
L 2188 4044 
z
M 1831 4666 
L 2547 4666 
L 4325 0 
L 3669 0 
L 3244 1197 
L 1141 1197 
L 716 0 
L 50 0 
L 1831 4666 
z
" transform="scale(0.015625)"/>
       <path id="DejaVuSans-63" d="M 3122 3366 
L 3122 2828 
Q 2878 2963 2633 3030 
Q 2388 3097 2138 3097 
Q 1578 3097 1268 2742 
Q 959 2388 959 1747 
Q 959 1106 1268 751 
Q 1578 397 2138 397 
Q 2388 397 2633 464 
Q 2878 531 3122 666 
L 3122 134 
Q 2881 22 2623 -34 
Q 2366 -91 2075 -91 
Q 1284 -91 818 406 
Q 353 903 353 1747 
Q 353 2603 823 3093 
Q 1294 3584 2113 3584 
Q 2378 3584 2631 3529 
Q 2884 3475 3122 3366 
z
" transform="scale(0.015625)"/>
       <path id="DejaVuSans-2d" d="M 313 2009 
L 1997 2009 
L 1997 1497 
L 313 1497 
L 313 2009 
z
" transform="scale(0.015625)"/>
       <path id="DejaVuSans-2c" d="M 750 794 
L 1409 794 
L 1409 256 
L 897 -744 
L 494 -744 
L 750 256 
L 750 794 
z
" transform="scale(0.015625)"/>
       <path id="DejaVuSans-3b5" d="M 1234 1888 
Q 884 1963 697 2166 
Q 509 2366 509 2656 
Q 509 3097 866 3344 
Q 1219 3588 1831 3588 
Q 2069 3588 2334 3550 
Q 2600 3513 2906 3438 
L 2906 2916 
Q 2603 3006 2353 3047 
Q 2100 3088 1878 3088 
Q 1506 3088 1291 2944 
Q 1072 2800 1072 2600 
Q 1072 2381 1284 2241 
Q 1494 2103 1856 2103 
L 2341 2103 
L 2341 1628 
L 1878 1628 
Q 1450 1628 1225 1469 
Q 981 1294 981 1019 
Q 981 738 1244 563 
Q 1509 388 1981 388 
Q 2272 388 2538 444 
Q 2803 503 3025 619 
L 3025 84 
Q 2744 -3 2481 -47 
Q 2216 -91 1966 -91 
Q 1222 -91 819 194 
Q 416 478 416 1019 
Q 416 1356 631 1584 
Q 847 1813 1234 1888 
z
" transform="scale(0.015625)"/>
       <path id="DejaVuSans-3d" d="M 678 2906 
L 4684 2906 
L 4684 2381 
L 678 2381 
L 678 2906 
z
M 678 1631 
L 4684 1631 
L 4684 1100 
L 678 1100 
L 678 1631 
z
" transform="scale(0.015625)"/>
      </defs>
      <use xlink:href="#DejaVuSans-47"/>
      <use xlink:href="#DejaVuSans-41" x="77.490234"/>
      <use xlink:href="#DejaVuSans-20" x="145.898438"/>
      <use xlink:href="#DejaVuSans-28" x="177.685547"/>
      <use xlink:href="#DejaVuSans-61" x="216.699219"/>
      <use xlink:href="#DejaVuSans-63" x="277.978516"/>
      <use xlink:href="#DejaVuSans-74" x="332.958984"/>
      <use xlink:href="#DejaVuSans-69" x="372.167969"/>
      <use xlink:href="#DejaVuSans-6f" x="399.951172"/>
      <use xlink:href="#DejaVuSans-6e" x="461.132812"/>
      <use xlink:href="#DejaVuSans-2d" x="524.511719"/>
      <use xlink:href="#DejaVuSans-62" x="560.595703"/>
      <use xlink:href="#DejaVuSans-79" x="624.072266"/>
      <use xlink:href="#DejaVuSans-2d" x="681.501953"/>
      <use xlink:href="#DejaVuSans-73" x="717.585938"/>
      <use xlink:href="#DejaVuSans-69" x="769.685547"/>
      <use xlink:href="#DejaVuSans-74" x="797.46875"/>
      <use xlink:href="#DejaVuSans-65" x="836.677734"/>
      <use xlink:href="#DejaVuSans-29" x="898.201172"/>
      <use xlink:href="#DejaVuSans-2c" x="937.214844"/>
      <use xlink:href="#DejaVuSans-20" x="969.001953"/>
      <use xlink:href="#DejaVuSans-3b5" x="1000.789062"/>
      <use xlink:href="#DejaVuSans-3d" x="1054.841797"/>
      <use xlink:href="#DejaVuSans-30" x="1138.630859"/>
      <use xlink:href="#DejaVuSans-2e" x="1202.253906"/>
      <use xlink:href="#DejaVuSans-31" x="1234.041016"/>
     </g>
    </g>
    <g id="LineCollection_6">
     <path d="M 106.138125 298.219687 
L 106.138125 282.219687 
" style="fill: none; stroke: #008000; stroke-width: 2"/>
    </g>
    <g id="line2d_35">
     <g>
      <use xlink:href="#m99f74055b6" x="106.138125" y="298.219687" style="fill: #008000; stroke: #008000"/>
     </g>
    </g>
    <g id="line2d_36">
     <g>
      <use xlink:href="#m99f74055b6" x="106.138125" y="282.219687" style="fill: #008000; stroke: #008000"/>
     </g>
    </g>
    <g id="line2d_37">
     <path d="M 90.138125 290.219687 
L 122.138125 290.219687 
" style="fill: none; stroke-dasharray: 7.4,3.2; stroke-dashoffset: 0; stroke: #008000; stroke-width: 2"/>
    </g>
    <g id="line2d_38">
     <g>
      <use xlink:href="#m4b9dc07512" x="106.138125" y="290.219687" style="fill: #008000; stroke: #008000"/>
     </g>
    </g>
    <g id="text_23">
     <!-- GA (action-by-site), ε=0.25 -->
     <g transform="translate(134.938125 295.819687)scale(0.16 -0.16)">
      <use xlink:href="#DejaVuSans-47"/>
      <use xlink:href="#DejaVuSans-41" x="77.490234"/>
      <use xlink:href="#DejaVuSans-20" x="145.898438"/>
      <use xlink:href="#DejaVuSans-28" x="177.685547"/>
      <use xlink:href="#DejaVuSans-61" x="216.699219"/>
      <use xlink:href="#DejaVuSans-63" x="277.978516"/>
      <use xlink:href="#DejaVuSans-74" x="332.958984"/>
      <use xlink:href="#DejaVuSans-69" x="372.167969"/>
      <use xlink:href="#DejaVuSans-6f" x="399.951172"/>
      <use xlink:href="#DejaVuSans-6e" x="461.132812"/>
      <use xlink:href="#DejaVuSans-2d" x="524.511719"/>
      <use xlink:href="#DejaVuSans-62" x="560.595703"/>
      <use xlink:href="#DejaVuSans-79" x="624.072266"/>
      <use xlink:href="#DejaVuSans-2d" x="681.501953"/>
      <use xlink:href="#DejaVuSans-73" x="717.585938"/>
      <use xlink:href="#DejaVuSans-69" x="769.685547"/>
      <use xlink:href="#DejaVuSans-74" x="797.46875"/>
      <use xlink:href="#DejaVuSans-65" x="836.677734"/>
      <use xlink:href="#DejaVuSans-29" x="898.201172"/>
      <use xlink:href="#DejaVuSans-2c" x="937.214844"/>
      <use xlink:href="#DejaVuSans-20" x="969.001953"/>
      <use xlink:href="#DejaVuSans-3b5" x="1000.789062"/>
      <use xlink:href="#DejaVuSans-3d" x="1054.841797"/>
      <use xlink:href="#DejaVuSans-30" x="1138.630859"/>
      <use xlink:href="#DejaVuSans-2e" x="1202.253906"/>
      <use xlink:href="#DejaVuSans-32" x="1234.041016"/>
      <use xlink:href="#DejaVuSans-35" x="1297.664062"/>
     </g>
    </g>
    <g id="LineCollection_7">
     <path d="M 106.138125 321.704687 
L 106.138125 305.704687 
" style="fill: none; stroke: #0000ff; stroke-width: 2"/>
    </g>
    <g id="line2d_39">
     <g>
      <use xlink:href="#me9d865d105" x="106.138125" y="321.704687" style="fill: #0000ff; stroke: #0000ff"/>
     </g>
    </g>
    <g id="line2d_40">
     <g>
      <use xlink:href="#me9d865d105" x="106.138125" y="305.704687" style="fill: #0000ff; stroke: #0000ff"/>
     </g>
    </g>
    <g id="line2d_41">
     <path d="M 90.138125 313.704687 
L 122.138125 313.704687 
" style="fill: none; stroke-dasharray: 7.4,3.2; stroke-dashoffset: 0; stroke: #0000ff; stroke-width: 2"/>
    </g>
    <g id="line2d_42">
     <g>
      <use xlink:href="#mb9564cf3f2" x="106.138125" y="313.704687" style="fill: #0000ff; stroke: #0000ff"/>
     </g>
    </g>
    <g id="text_24">
     <!-- GA (zhang-actions), ε=0.1 -->
     <g transform="translate(134.938125 319.304688)scale(0.16 -0.16)">
      <defs>
       <path id="DejaVuSans-7a" d="M 353 3500 
L 3084 3500 
L 3084 2975 
L 922 459 
L 3084 459 
L 3084 0 
L 275 0 
L 275 525 
L 2438 3041 
L 353 3041 
L 353 3500 
z
" transform="scale(0.015625)"/>
      </defs>
      <use xlink:href="#DejaVuSans-47"/>
      <use xlink:href="#DejaVuSans-41" x="77.490234"/>
      <use xlink:href="#DejaVuSans-20" x="145.898438"/>
      <use xlink:href="#DejaVuSans-28" x="177.685547"/>
      <use xlink:href="#DejaVuSans-7a" x="216.699219"/>
      <use xlink:href="#DejaVuSans-68" x="269.189453"/>
      <use xlink:href="#DejaVuSans-61" x="332.568359"/>
      <use xlink:href="#DejaVuSans-6e" x="393.847656"/>
      <use xlink:href="#DejaVuSans-67" x="457.226562"/>
      <use xlink:href="#DejaVuSans-2d" x="520.703125"/>
      <use xlink:href="#DejaVuSans-61" x="556.787109"/>
      <use xlink:href="#DejaVuSans-63" x="618.066406"/>
      <use xlink:href="#DejaVuSans-74" x="673.046875"/>
      <use xlink:href="#DejaVuSans-69" x="712.255859"/>
      <use xlink:href="#DejaVuSans-6f" x="740.039062"/>
      <use xlink:href="#DejaVuSans-6e" x="801.220703"/>
      <use xlink:href="#DejaVuSans-73" x="864.599609"/>
      <use xlink:href="#DejaVuSans-29" x="916.699219"/>
      <use xlink:href="#DejaVuSans-2c" x="955.712891"/>
      <use xlink:href="#DejaVuSans-20" x="987.5"/>
      <use xlink:href="#DejaVuSans-3b5" x="1019.287109"/>
      <use xlink:href="#DejaVuSans-3d" x="1073.339844"/>
      <use xlink:href="#DejaVuSans-30" x="1157.128906"/>
      <use xlink:href="#DejaVuSans-2e" x="1220.751953"/>
      <use xlink:href="#DejaVuSans-31" x="1252.539062"/>
     </g>
    </g>
    <g id="LineCollection_8">
     <path d="M 106.138125 345.189687 
L 106.138125 329.189687 
" style="fill: none; stroke: #000000; stroke-width: 2"/>
    </g>
    <g id="line2d_43">
     <g>
      <use xlink:href="#mcaa0792af2" x="106.138125" y="345.189687" style="stroke: #000000"/>
     </g>
    </g>
    <g id="line2d_44">
     <g>
      <use xlink:href="#mcaa0792af2" x="106.138125" y="329.189687" style="stroke: #000000"/>
     </g>
    </g>
    <g id="line2d_45">
     <path d="M 90.138125 337.189687 
L 122.138125 337.189687 
" style="fill: none; stroke-dasharray: 7.4,3.2; stroke-dashoffset: 0; stroke: #000000; stroke-width: 2"/>
    </g>
    <g id="line2d_46">
     <g>
      <use xlink:href="#m385b59508f" x="106.138125" y="337.189687" style="stroke: #000000"/>
     </g>
    </g>
    <g id="text_25">
     <!-- GA (zhang-actions), ε=0.25 -->
     <g transform="translate(134.938125 342.789687)scale(0.16 -0.16)">
      <use xlink:href="#DejaVuSans-47"/>
      <use xlink:href="#DejaVuSans-41" x="77.490234"/>
      <use xlink:href="#DejaVuSans-20" x="145.898438"/>
      <use xlink:href="#DejaVuSans-28" x="177.685547"/>
      <use xlink:href="#DejaVuSans-7a" x="216.699219"/>
      <use xlink:href="#DejaVuSans-68" x="269.189453"/>
      <use xlink:href="#DejaVuSans-61" x="332.568359"/>
      <use xlink:href="#DejaVuSans-6e" x="393.847656"/>
      <use xlink:href="#DejaVuSans-67" x="457.226562"/>
      <use xlink:href="#DejaVuSans-2d" x="520.703125"/>
      <use xlink:href="#DejaVuSans-61" x="556.787109"/>
      <use xlink:href="#DejaVuSans-63" x="618.066406"/>
      <use xlink:href="#DejaVuSans-74" x="673.046875"/>
      <use xlink:href="#DejaVuSans-69" x="712.255859"/>
      <use xlink:href="#DejaVuSans-6f" x="740.039062"/>
      <use xlink:href="#DejaVuSans-6e" x="801.220703"/>
      <use xlink:href="#DejaVuSans-73" x="864.599609"/>
      <use xlink:href="#DejaVuSans-29" x="916.699219"/>
      <use xlink:href="#DejaVuSans-2c" x="955.712891"/>
      <use xlink:href="#DejaVuSans-20" x="987.5"/>
      <use xlink:href="#DejaVuSans-3b5" x="1019.287109"/>
      <use xlink:href="#DejaVuSans-3d" x="1073.339844"/>
      <use xlink:href="#DejaVuSans-30" x="1157.128906"/>
      <use xlink:href="#DejaVuSans-2e" x="1220.751953"/>
      <use xlink:href="#DejaVuSans-32" x="1252.539062"/>
      <use xlink:href="#DejaVuSans-35" x="1316.162109"/>
     </g>
    </g>
   </g>
  </g>
 </g>
 <defs>
  <clipPath id="p6e62180bd9">
   <rect x="75.738125" y="26.877187" width="1050.55" height="333.64"/>
  </clipPath>
 </defs>
</svg>
